<?xml version="1.0" encoding="UTF-8" standalone="no"?>
<!-- Created with Inkscape (http://www.inkscape.org/) -->

<svg
   xmlns:dc="http://purl.org/dc/elements/1.1/"
   xmlns:cc="http://creativecommons.org/ns#"
   xmlns:rdf="http://www.w3.org/1999/02/22-rdf-syntax-ns#"
   xmlns:svg="http://www.w3.org/2000/svg"
   xmlns="http://www.w3.org/2000/svg"
   xmlns:sodipodi="http://sodipodi.sourceforge.net/DTD/sodipodi-0.dtd"
   xmlns:inkscape="http://www.inkscape.org/namespaces/inkscape"
   width="546.00562"
   height="248.7663"
   id="svg3826"
   version="1.1"
   inkscape:version="0.48.4 r9939"
   sodipodi:docname="BISS-Logo.svg">
  <defs
     id="defs3828" />
  <sodipodi:namedview
     id="base"
     pagecolor="#ffffff"
     bordercolor="#666666"
     borderopacity="1.0"
     inkscape:pageopacity="0.0"
     inkscape:pageshadow="2"
     inkscape:zoom="1.1253243"
     inkscape:cx="225.29531"
     inkscape:cy="241.67383"
     inkscape:document-units="px"
     inkscape:current-layer="g4124"
     showgrid="false"
     showguides="true"
     inkscape:guide-bbox="true"
     inkscape:window-width="1251"
     inkscape:window-height="969"
     inkscape:window-x="871"
     inkscape:window-y="226"
     inkscape:window-maximized="0"
     units="mm"
     fit-margin-top="10"
     fit-margin-left="10"
     fit-margin-bottom="10"
     fit-margin-right="10">
    <sodipodi:guide
       orientation="0,1"
       position="533.79007,124.50616"
       id="guide4154" />
    <sodipodi:guide
       orientation="0,1"
       position="103.67911,35.859943"
       id="guide2996" />
    <sodipodi:guide
       orientation="0,1"
       position="116.87463,213.05696"
       id="guide2998" />
  </sodipodi:namedview>
  <metadata
     id="metadata3831">
    <rdf:RDF>
      <cc:Work
         rdf:about="">
        <dc:format>image/svg+xml</dc:format>
        <dc:type
           rdf:resource="http://purl.org/dc/dcmitype/StillImage" />
        <dc:title />
      </cc:Work>
    </rdf:RDF>
  </metadata>
  <g
     inkscape:label="Ebene 1"
     inkscape:groupmode="layer"
     id="layer1"
     transform="translate(35.433071,-839.02898)">
    <g
       style="font-size:265.81292725px;font-style:normal;font-variant:normal;font-weight:normal;font-stretch:normal;text-align:start;line-height:125%;letter-spacing:0px;word-spacing:0px;writing-mode:lr-tb;text-anchor:start;fill:#000000;fill-opacity:1;stroke:none;font-family:Sans;-inkscape-font-specification:Sans"
       id="text4077"
       transform="translate(-34.421006,59.755923)">
      <path
         d="m 169.40413,942.24717 c -1.5e-4,13.23877 -3.7641,24.01145 -11.29186,32.31808 -10.90261,12.02735 -27.5159,18.04101 -49.83992,18.04101 l -73.851344,0 0,-177.16535 68.529894,0 c 33.2265,1.8e-4 49.83979,15.40208 49.83992,46.20576 -1.3e-4,9.25858 -1.81721,17.0028 -5.45124,23.23267 -3.02859,5.27829 -7.70108,9.77773 -14.01748,13.49832 14.19041,2.94203 23.88149,8.60958 29.07329,17.00268 4.67234,7.70103 7.00859,16.65663 7.00874,26.86683 z m -59.18491,-74.5003 c -9e-5,-8.04694 -3.63425,-13.36838 -10.90248,-15.96435 -2.595911,-0.86514 -6.057013,-1.29777 -10.383318,-1.29792 l -8.436445,0 0,34.65433 8.436445,0 c 7.960463,1e-4 13.671278,-1.94677 17.132478,-5.84062 2.76879,-3.11488 4.15323,-6.96535 4.15332,-11.55144 z m 13.10894,71.38531 c -1.1e-4,-10.29673 -5.32155,-16.35366 -15.96435,-18.17081 -3.37467,-0.51909 -9.172012,-0.77867 -17.392056,-0.77875 l -9.474777,0 0,37.37995 10.253526,0 c 11.767677,3e-5 19.987787,-1.38441 24.660377,-4.15333 5.27808,-3.11495 7.91717,-7.87397 7.91728,-14.27706 z"
         style="font-weight:bold;font-family:Aharoni;-inkscape-font-specification:Aharoni Bold"
         id="path4142"
         inkscape:connector-curvature="0" />
    </g>
    <path
       inkscape:connector-curvature="0"
       id="path4135"
       style="font-size:253.02276611px;font-style:normal;font-variant:normal;font-weight:bold;font-stretch:normal;text-align:start;line-height:125%;letter-spacing:0px;word-spacing:0px;writing-mode:lr-tb;text-anchor:start;fill:#000000;fill-opacity:1;stroke:none;font-family:Aharoni;-inkscape-font-specification:Aharoni Bold"
       d="m 342.82425,992.07159 c -1.4e-4,28.49801 -12.51948,47.07111 -37.55807,55.71941 -8.73069,3.0474 -18.1202,4.5712 -28.16855,4.5712 -21.08528,0 -40.64675,-6.3832 -58.68448,-19.1497 l 18.77903,-35.33423 c 13.17823,11.86043 26.06821,17.79073 38.66999,17.79063 5.68305,10e-5 10.50135,-1.3178 14.45491,-3.9534 4.61231,-2.9651 6.9185,-7.1657 6.91859,-12.60177 -9e-5,-4.9418 -2.55337,-9.06 -7.65987,-12.35463 -3.78883,-2.47086 -10.17204,-4.98296 -19.14967,-7.53632 -10.87212,-3.21213 -17.70834,-5.43596 -20.50868,-6.6715 -4.4477,-1.8943 -8.23645,-4.11813 -11.36626,-6.6715 -8.97771,-7.41268 -13.46656,-18.6142 -13.46654,-33.60458 -2e-5,-15.64906 4.65355,-28.62141 13.96073,-38.91708 10.87203,-12.10737 25.36811,-18.16113 43.48829,-18.1613 18.20239,1.7e-4 36.03421,4.57138 53.49553,13.71364 l -17.54357,34.09877 c -9.55434,-7.41265 -19.19094,-11.11903 -28.90983,-11.11917 -4.69483,1.4e-4 -8.8954,1.19442 -12.60172,3.58285 -4.20063,2.71814 -6.30092,6.34216 -6.30086,10.87207 -6e-5,4.44778 2.75914,8.27771 8.2776,11.4898 2.47086,1.48266 9.88362,4.03595 22.23833,7.65987 15.48436,4.53013 26.52115,10.95453 33.1104,19.27322 5.683,7.08339 8.52456,16.18463 8.5247,27.30372 z" />
    <path
       inkscape:connector-curvature="0"
       id="path4137"
       style="font-size:253.02276611px;font-style:normal;font-variant:normal;font-weight:bold;font-stretch:normal;text-align:start;line-height:125%;letter-spacing:0px;word-spacing:0px;writing-mode:lr-tb;text-anchor:start;fill:#000000;fill-opacity:1;stroke:none;font-family:Aharoni;-inkscape-font-specification:Aharoni Bold"
       d="m 475.13949,992.07167 c -1.3e-4,28.49793 -12.51948,47.07103 -37.55807,55.71933 -8.73069,3.0474 -18.1202,4.5712 -28.16855,4.5712 -21.08527,0 -40.64675,-6.3832 -58.68448,-19.1497 l 18.77904,-35.33415 c 13.17822,11.86035 26.06821,17.79065 38.66998,17.79055 5.68306,10e-5 10.50136,-1.3178 14.45491,-3.9534 4.61231,-2.9651 6.91851,-7.1657 6.9186,-12.60172 -9e-5,-4.94177 -2.55338,-9.05997 -7.65987,-12.3546 -3.78883,-2.47086 -10.17205,-4.98296 -19.14968,-7.53632 -10.87212,-3.21213 -17.70834,-5.43596 -20.50868,-6.6715 -4.4477,-1.8943 -8.23645,-4.11813 -11.36625,-6.6715 -8.97772,-7.41268 -13.46656,-18.6142 -13.46655,-33.60458 -1e-5,-15.64906 4.65356,-28.62141 13.96073,-38.91708 10.87203,-12.10737 25.36811,-18.16113 43.48829,-18.1613 18.20239,1.7e-4 36.03422,4.57138 53.49554,13.71364 l -17.54358,34.09877 c -9.55434,-7.41265 -19.19094,-11.11903 -28.90982,-11.11917 -4.69484,1.4e-4 -8.89541,1.19442 -12.60172,3.58285 -4.20064,2.71814 -6.30092,6.34216 -6.30086,10.87207 -6e-5,4.44778 2.75913,8.27771 8.2776,11.4898 2.47085,1.48266 9.88362,4.03595 22.23833,7.65987 15.48435,4.53013 26.52114,10.95453 33.1104,19.27322 5.68299,7.08339 8.52456,16.18463 8.52469,27.30372 z" />
    <g
       id="g4124"
       transform="matrix(0.33916438,0.03924138,-0.0415282,0.28982484,139.87753,752.22702)">
      <path
         sodipodi:nodetypes="cccccccccccccccccccccccccccccccccccccccccccccccccccccccccccccccccccccc"
         inkscape:connector-curvature="0"
         id="path2997"
         d="m 114.70811,465.9298 -5.69487,18.63777 -6.98916,27.95665 -4.14173,35.98125 -1.81201,33.91039 -0.51771,45.04127 0.77657,25.36808 0.51772,5.95374 1.03543,4.40058 2.58858,29.25094 3.36515,40.38183 2.07086,11.38975 12.42518,45.30014 5.69488,23.55607 8.80117,33.91038 8.28345,28.47437 9.57774,29.5098 12.16632,26.92123 10.48375,19.54377 12.03689,19.54377 15.27262,11.90746 11.90746,12.42518 7.24802,4.65945 5.95374,2.07083 8.54231,0.5178 10.61317,-1.5532 8.54231,-3.36515 9.31889,-3.36516 5.17716,-5.69487 6.21259,-8.54231 10.09545,-22.7795 4.65945,-12.68404 2.58858,-8.28345 2.32972,-13.46061 0.77657,-19.93206 -0.51772,-22.26178 -1.29429,-13.20175 -11.13089,-43.22927 -1.29428,-7.50688 -3.88287,-7.50688 -8.80117,-39.86412 -20.44978,-75.32765 -8.28345,-28.21551 -0.77657,-15.79034 1.29429,-35.20467 1.812,-21.22635 -2.07086,-25.62693 -5.95373,-32.6161 -1.29429,-15.27262 2.32972,-6.21259 2.84743,-11.6486 -0.51771,-4.40059 3.10629,-2.84743 -0.25885,-4.65945 3.62401,-9.8366 0.51771,-11.6486 -6.21259,-31.58067 -8.67173,-20.5792 -5.69488,-6.60088 -6.85973,-4.98301 -10.22489,-4.33587 -11.51918,-3.1063 -11.26032,-0.12942 -8.93059,2.32971 -9.83661,3.49459 -12.16632,7.24802 -12.29575,10.7426 -9.96604,13.46062 -8.02459,13.97832 z"
         style="fill:#b15614;fill-opacity:1;stroke:#000000;stroke-width:1px;stroke-linecap:butt;stroke-linejoin:miter;stroke-opacity:1;display:inline" />
      <path
         sodipodi:nodetypes="cccccccccccccccccccccccccccc"
         inkscape:connector-curvature="0"
         id="path3006"
         d="m 206.43845,495.717 -10.73237,-0.3833 -7.79374,1.5332 -11.37121,6.13278 -20.44261,13.2877 -19.42048,18.27059 -14.18206,17.24845 -8.94365,13.54323 -4.59959,10.60461 -3.57745,12.77663 -3.06639,17.24846 -0.3833,16.99292 -1.02213,31.04722 8.56034,-11.24345 17.88729,-21.72027 c 4.1737,-5.53654 10.39166,-13.24511 16.73739,-19.29271 7.32527,-5.96243 16.05596,-11.92486 21.9758,-17.88729 l 9.58248,-8.81588 13.15993,-12.64886 7.15492,-8.56035 4.47182,-6.64385 2.04426,-5.87725 0.3833,-5.74948 -1.5332,-15.33196 -2.17203,-11.49897 0.63884,-3.57746 3.32192,-4.85512 z"
         style="fill:#f3e5cb;fill-opacity:1;stroke:#000000;stroke-width:1px;stroke-linecap:butt;stroke-linejoin:miter;stroke-opacity:1;display:inline" />
      <path
         sodipodi:nodetypes="cccccccccccccccccccccccccc"
         inkscape:connector-curvature="0"
         id="path3008"
         d="m 233.14162,661.04663 -7.28268,1.02213 -5.36619,2.81086 -8.17704,9.71025 -15.33196,10.47683 -21.72028,18.90942 -21.72028,23.38124 -13.41546,16.35409 -8.68811,17.37622 -2.93863,14.0543 1.40543,13.28769 3.0664,8.56035 2.55532,5.62172 4.85512,2.04426 5.11066,-1.02213 4.08852,-2.68309 21.08144,-27.7253 17.88729,-18.39835 18.65388,-21.84804 10.86014,-14.56536 7.02715,-12.01004 3.57746,-8.68811 1.14989,-13.15993 1.40543,-10.73237 2.04426,-7.02715 z"
         style="fill:#f3e5cb;fill-opacity:1;stroke:#000000;stroke-width:1px;stroke-linecap:butt;stroke-linejoin:miter;stroke-opacity:1;display:inline" />
      <path
         inkscape:connector-curvature="0"
         id="path3010"
         d="m 276.0711,817.04932 -7.66598,4.59959 -7.41044,7.53821 -16.22633,21.46475 -15.71525,23.63677 -9.96578,18.52612 -4.59959,13.15993 -0.51106,9.32694 0.3833,7.41045 0.63883,8.68811 1.53319,4.98289 3.57746,2.29979 6.89938,2.68309 8.68811,0.12777 8.68811,-1.40543 6.89939,-4.59959 11.88227,-13.54323 11.62673,-20.05931 5.49395,-16.73739 0.89437,-13.15994 -0.63883,-17.24845 -1.27767,-17.12069 -1.27766,-15.07642 z"
         style="fill:#f3e5cb;fill-opacity:1;stroke:#000000;stroke-width:1px;stroke-linecap:butt;stroke-linejoin:miter;stroke-opacity:1;display:inline" />
      <path
         inkscape:connector-curvature="0"
         id="path3012"
         d="m 219.59839,951.0762 -3.96076,-1.02213 -2.93862,1.66096 -2.04427,6.64385 -1.02213,8.43258 2.17203,4.34406 3.06639,-5.74949 4.72736,-6.77161 0.89436,-5.49396 z"
         style="fill:#dec79c;fill-opacity:1;stroke:#000000;stroke-width:1px;stroke-linecap:butt;stroke-linejoin:miter;stroke-opacity:1;display:inline" />
      <path
         inkscape:connector-curvature="0"
         id="path3032"
         d="m 195.96162,511.17673 -8.43258,8.17704 -8.43258,15.84303 -15.84302,21.46474 -16.35409,18.39835 -14.8209,19.93155 -10.73237,14.0543 -8.43258,15.33196 -7.66598,15.33196 -1.78873,5.11065"
         style="fill:none;stroke:#5c3d1a;stroke-width:1px;stroke-linecap:butt;stroke-linejoin:miter;stroke-opacity:1;display:inline" />
      <path
         inkscape:connector-curvature="0"
         id="path3034"
         d="m 232.50279,663.98526 -9.19918,11.24344 -17.88729,20.44261 -15.84302,18.90942 -15.07643,19.16495 -12.77663,18.39835 -8.68811,16.60962 -10.22131,18.39835 -2.29979,6.51608 0,0"
         style="fill:none;stroke:#5c3d1a;stroke-width:1px;stroke-linecap:butt;stroke-linejoin:miter;stroke-opacity:1;display:inline" />
      <path
         inkscape:connector-curvature="0"
         id="path3036"
         d="m 275.94334,822.92657 -13.79877,32.96372 -16.86515,30.15285 -14.0543,21.97581 -6.38831,14.82089 -0.7666,10.22131 0,3.83299"
         style="fill:none;stroke:#5c3d1a;stroke-width:1px;stroke-linecap:butt;stroke-linejoin:miter;stroke-opacity:1;display:inline" />
    </g>
  </g>
</svg>
