G75*
%MOIN*%
%OFA0B0*%
%FSLAX24Y24*%
%IPPOS*%
%LPD*%
%AMOC8*
5,1,8,0,0,1.08239X$1,22.5*
%
%ADD10C,0.0030*%
%ADD11R,0.0500X0.0220*%
%ADD12R,0.0220X0.0500*%
%ADD13R,0.2917X0.0709*%
%ADD14R,0.2524X0.0591*%
%ADD15R,0.0551X0.0394*%
%ADD16R,0.0512X0.0591*%
%ADD17R,1.2031X0.4488*%
%ADD18C,0.0197*%
%ADD19C,0.0197*%
%ADD20C,0.0118*%
%ADD21C,0.0160*%
%ADD22C,0.0236*%
D10*
X008994Y007360D02*
X008994Y007724D01*
X009115Y007724D02*
X008873Y007724D01*
X009235Y007664D02*
X009296Y007724D01*
X009417Y007724D01*
X009478Y007664D01*
X009478Y007421D01*
X009417Y007360D01*
X009296Y007360D01*
X009235Y007421D01*
X009235Y007664D01*
X009598Y007664D02*
X009598Y007603D01*
X009658Y007542D01*
X009840Y007542D01*
X009840Y007360D02*
X009840Y007724D01*
X009658Y007724D01*
X009598Y007664D01*
X009658Y007542D02*
X009598Y007482D01*
X009598Y007421D01*
X009658Y007360D01*
X009840Y007360D01*
D11*
G36*
X016931Y005456D02*
X017283Y005104D01*
X017127Y004948D01*
X016775Y005300D01*
X016931Y005456D01*
G37*
G36*
X017154Y005679D02*
X017506Y005327D01*
X017350Y005171D01*
X016998Y005523D01*
X017154Y005679D01*
G37*
G36*
X017377Y005901D02*
X017729Y005549D01*
X017573Y005393D01*
X017221Y005745D01*
X017377Y005901D01*
G37*
G36*
X017600Y006124D02*
X017952Y005772D01*
X017796Y005616D01*
X017444Y005968D01*
X017600Y006124D01*
G37*
G36*
X017822Y006347D02*
X018174Y005995D01*
X018018Y005839D01*
X017666Y006191D01*
X017822Y006347D01*
G37*
G36*
X018045Y006569D02*
X018397Y006217D01*
X018241Y006061D01*
X017889Y006413D01*
X018045Y006569D01*
G37*
G36*
X018268Y006792D02*
X018620Y006440D01*
X018464Y006284D01*
X018112Y006636D01*
X018268Y006792D01*
G37*
G36*
X018490Y007015D02*
X018842Y006663D01*
X018686Y006507D01*
X018334Y006859D01*
X018490Y007015D01*
G37*
G36*
X019321Y008578D02*
X019673Y008226D01*
X019517Y008070D01*
X019165Y008422D01*
X019321Y008578D01*
G37*
G36*
X019544Y008800D02*
X019896Y008448D01*
X019740Y008292D01*
X019388Y008644D01*
X019544Y008800D01*
G37*
G36*
X019767Y009023D02*
X020119Y008671D01*
X019963Y008515D01*
X019611Y008867D01*
X019767Y009023D01*
G37*
G36*
X019990Y009246D02*
X020342Y008894D01*
X020186Y008738D01*
X019834Y009090D01*
X019990Y009246D01*
G37*
G36*
X020212Y009468D02*
X020564Y009116D01*
X020408Y008960D01*
X020056Y009312D01*
X020212Y009468D01*
G37*
G36*
X020435Y009691D02*
X020787Y009339D01*
X020631Y009183D01*
X020279Y009535D01*
X020435Y009691D01*
G37*
G36*
X020658Y009914D02*
X021010Y009562D01*
X020854Y009406D01*
X020502Y009758D01*
X020658Y009914D01*
G37*
G36*
X020880Y010137D02*
X021232Y009785D01*
X021076Y009629D01*
X020724Y009981D01*
X020880Y010137D01*
G37*
G36*
X017822Y011858D02*
X018174Y011506D01*
X018018Y011350D01*
X017666Y011702D01*
X017822Y011858D01*
G37*
G36*
X018045Y012081D02*
X018397Y011729D01*
X018241Y011573D01*
X017889Y011925D01*
X018045Y012081D01*
G37*
G36*
X018268Y012304D02*
X018620Y011952D01*
X018464Y011796D01*
X018112Y012148D01*
X018268Y012304D01*
G37*
G36*
X018490Y012527D02*
X018842Y012175D01*
X018686Y012019D01*
X018334Y012371D01*
X018490Y012527D01*
G37*
G36*
X017600Y011636D02*
X017952Y011284D01*
X017796Y011128D01*
X017444Y011480D01*
X017600Y011636D01*
G37*
G36*
X017377Y011413D02*
X017729Y011061D01*
X017573Y010905D01*
X017221Y011257D01*
X017377Y011413D01*
G37*
G36*
X017154Y011190D02*
X017506Y010838D01*
X017350Y010682D01*
X016998Y011034D01*
X017154Y011190D01*
G37*
G36*
X016931Y010968D02*
X017283Y010616D01*
X017127Y010460D01*
X016775Y010812D01*
X016931Y010968D01*
G37*
G36*
X020880Y004625D02*
X021232Y004273D01*
X021076Y004117D01*
X020724Y004469D01*
X020880Y004625D01*
G37*
G36*
X020658Y004402D02*
X021010Y004050D01*
X020854Y003894D01*
X020502Y004246D01*
X020658Y004402D01*
G37*
G36*
X020435Y004179D02*
X020787Y003827D01*
X020631Y003671D01*
X020279Y004023D01*
X020435Y004179D01*
G37*
G36*
X020212Y003957D02*
X020564Y003605D01*
X020408Y003449D01*
X020056Y003801D01*
X020212Y003957D01*
G37*
G36*
X019990Y003734D02*
X020342Y003382D01*
X020186Y003226D01*
X019834Y003578D01*
X019990Y003734D01*
G37*
G36*
X019767Y003511D02*
X020119Y003159D01*
X019963Y003003D01*
X019611Y003355D01*
X019767Y003511D01*
G37*
G36*
X019544Y003288D02*
X019896Y002936D01*
X019740Y002780D01*
X019388Y003132D01*
X019544Y003288D01*
G37*
G36*
X019321Y003066D02*
X019673Y002714D01*
X019517Y002558D01*
X019165Y002910D01*
X019321Y003066D01*
G37*
D12*
G36*
X018686Y003066D02*
X018842Y002910D01*
X018490Y002558D01*
X018334Y002714D01*
X018686Y003066D01*
G37*
G36*
X018464Y003288D02*
X018620Y003132D01*
X018268Y002780D01*
X018112Y002936D01*
X018464Y003288D01*
G37*
G36*
X018241Y003511D02*
X018397Y003355D01*
X018045Y003003D01*
X017889Y003159D01*
X018241Y003511D01*
G37*
G36*
X018018Y003734D02*
X018174Y003578D01*
X017822Y003226D01*
X017666Y003382D01*
X018018Y003734D01*
G37*
G36*
X017796Y003957D02*
X017952Y003801D01*
X017600Y003449D01*
X017444Y003605D01*
X017796Y003957D01*
G37*
G36*
X017573Y004179D02*
X017729Y004023D01*
X017377Y003671D01*
X017221Y003827D01*
X017573Y004179D01*
G37*
G36*
X017350Y004402D02*
X017506Y004246D01*
X017154Y003894D01*
X016998Y004050D01*
X017350Y004402D01*
G37*
G36*
X017127Y004625D02*
X017283Y004469D01*
X016931Y004117D01*
X016775Y004273D01*
X017127Y004625D01*
G37*
G36*
X020186Y006347D02*
X020342Y006191D01*
X019990Y005839D01*
X019834Y005995D01*
X020186Y006347D01*
G37*
G36*
X019963Y006569D02*
X020119Y006413D01*
X019767Y006061D01*
X019611Y006217D01*
X019963Y006569D01*
G37*
G36*
X019740Y006792D02*
X019896Y006636D01*
X019544Y006284D01*
X019388Y006440D01*
X019740Y006792D01*
G37*
G36*
X019517Y007015D02*
X019673Y006859D01*
X019321Y006507D01*
X019165Y006663D01*
X019517Y007015D01*
G37*
G36*
X020408Y006124D02*
X020564Y005968D01*
X020212Y005616D01*
X020056Y005772D01*
X020408Y006124D01*
G37*
G36*
X020631Y005901D02*
X020787Y005745D01*
X020435Y005393D01*
X020279Y005549D01*
X020631Y005901D01*
G37*
G36*
X020854Y005679D02*
X021010Y005523D01*
X020658Y005171D01*
X020502Y005327D01*
X020854Y005679D01*
G37*
G36*
X021076Y005456D02*
X021232Y005300D01*
X020880Y004948D01*
X020724Y005104D01*
X021076Y005456D01*
G37*
G36*
X018686Y008578D02*
X018842Y008422D01*
X018490Y008070D01*
X018334Y008226D01*
X018686Y008578D01*
G37*
G36*
X018464Y008800D02*
X018620Y008644D01*
X018268Y008292D01*
X018112Y008448D01*
X018464Y008800D01*
G37*
G36*
X018241Y009023D02*
X018397Y008867D01*
X018045Y008515D01*
X017889Y008671D01*
X018241Y009023D01*
G37*
G36*
X018018Y009246D02*
X018174Y009090D01*
X017822Y008738D01*
X017666Y008894D01*
X018018Y009246D01*
G37*
G36*
X017796Y009468D02*
X017952Y009312D01*
X017600Y008960D01*
X017444Y009116D01*
X017796Y009468D01*
G37*
G36*
X017573Y009691D02*
X017729Y009535D01*
X017377Y009183D01*
X017221Y009339D01*
X017573Y009691D01*
G37*
G36*
X017350Y009914D02*
X017506Y009758D01*
X017154Y009406D01*
X016998Y009562D01*
X017350Y009914D01*
G37*
G36*
X017127Y010137D02*
X017283Y009981D01*
X016931Y009629D01*
X016775Y009785D01*
X017127Y010137D01*
G37*
G36*
X020186Y011858D02*
X020342Y011702D01*
X019990Y011350D01*
X019834Y011506D01*
X020186Y011858D01*
G37*
G36*
X019963Y012081D02*
X020119Y011925D01*
X019767Y011573D01*
X019611Y011729D01*
X019963Y012081D01*
G37*
G36*
X019740Y012304D02*
X019896Y012148D01*
X019544Y011796D01*
X019388Y011952D01*
X019740Y012304D01*
G37*
G36*
X019517Y012527D02*
X019673Y012371D01*
X019321Y012019D01*
X019165Y012175D01*
X019517Y012527D01*
G37*
G36*
X020408Y011636D02*
X020564Y011480D01*
X020212Y011128D01*
X020056Y011284D01*
X020408Y011636D01*
G37*
G36*
X020631Y011413D02*
X020787Y011257D01*
X020435Y010905D01*
X020279Y011061D01*
X020631Y011413D01*
G37*
G36*
X020854Y011190D02*
X021010Y011034D01*
X020658Y010682D01*
X020502Y010838D01*
X020854Y011190D01*
G37*
G36*
X021076Y010968D02*
X021232Y010812D01*
X020880Y010460D01*
X020724Y010616D01*
X021076Y010968D01*
G37*
D13*
X026112Y011676D03*
X026112Y008920D03*
X026112Y006164D03*
X026112Y003408D03*
D14*
X025915Y004393D03*
X025915Y005180D03*
X025915Y009904D03*
X025915Y010692D03*
D15*
X015746Y010672D03*
X014880Y010298D03*
X015746Y009924D03*
X015746Y009393D03*
X014880Y009019D03*
X015746Y008645D03*
X015746Y006440D03*
X014880Y006066D03*
X015746Y005692D03*
X015746Y005160D03*
X014880Y004786D03*
X015746Y004412D03*
X015746Y003881D03*
X014880Y003507D03*
X015746Y003133D03*
X015746Y011204D03*
X014880Y011578D03*
X015746Y011952D03*
D16*
X013669Y011184D03*
X012921Y011184D03*
X012921Y010298D03*
X013669Y010298D03*
X013669Y009412D03*
X012921Y009412D03*
X012921Y005672D03*
X013669Y005672D03*
X013669Y004786D03*
X012921Y004786D03*
X012921Y003900D03*
X013669Y003900D03*
D17*
X006515Y004786D03*
X006515Y010298D03*
D18*
X013049Y011971D03*
X014132Y011184D03*
X014673Y011184D03*
X014427Y010298D03*
X014132Y010298D03*
X014132Y009412D03*
X014673Y009412D03*
X016543Y008526D03*
X020087Y010052D03*
X019791Y010347D03*
X019004Y010692D03*
X018591Y010397D03*
X019102Y011430D03*
X020776Y011578D03*
X021268Y011332D03*
X021957Y011578D03*
X022449Y011528D03*
X023531Y010692D03*
X023827Y010298D03*
X023335Y009904D03*
X022941Y010298D03*
X022400Y009412D03*
X021366Y009314D03*
X021366Y008969D03*
X023039Y008920D03*
X024024Y009215D03*
X024516Y008330D03*
X022449Y006017D03*
X021957Y006066D03*
X021268Y005820D03*
X020776Y006066D03*
X019102Y005918D03*
X019004Y005180D03*
X018591Y004885D03*
X019791Y004835D03*
X020087Y004540D03*
X021366Y003802D03*
X021366Y003458D03*
X022400Y003900D03*
X023039Y003408D03*
X024024Y003704D03*
X023335Y004393D03*
X022941Y004786D03*
X023531Y005180D03*
X023827Y004786D03*
X024516Y002818D03*
X016543Y003015D03*
X014673Y003900D03*
X014132Y003900D03*
X014132Y004786D03*
X014427Y004786D03*
X014673Y005672D03*
X014132Y005672D03*
X013049Y006459D03*
X015313Y006706D03*
X016543Y006755D03*
X016543Y012267D03*
X015313Y012217D03*
D19*
X014880Y011578D02*
X014880Y011391D01*
X014673Y011184D01*
X014132Y011184D02*
X013669Y011184D01*
X012921Y011184D02*
X012921Y011843D01*
X013049Y011971D01*
X012921Y011184D02*
X012921Y010298D01*
X012921Y009412D01*
X013669Y009412D02*
X014132Y009412D01*
X014673Y009412D02*
X014880Y009206D01*
X014880Y009019D01*
X015313Y008772D02*
X015411Y008674D01*
X015717Y008674D01*
X015746Y008645D01*
X016425Y008645D01*
X016543Y008526D01*
X017900Y008526D01*
X018143Y008769D01*
X019082Y009708D01*
X020263Y009708D01*
X020533Y009437D01*
X020755Y009215D01*
X021022Y009215D01*
X021120Y009314D01*
X021366Y009314D01*
X021563Y009314D01*
X021957Y008920D01*
X023039Y008920D01*
X022843Y009117D01*
X022843Y009609D01*
X022449Y010003D01*
X022449Y010495D01*
X022941Y010987D01*
X022941Y011233D01*
X023384Y011676D01*
X022892Y011676D01*
X022744Y011824D01*
X022203Y011824D01*
X021957Y011578D01*
X021465Y011578D01*
X021120Y011922D01*
X020405Y011922D01*
X020088Y011604D01*
X020756Y010936D02*
X020511Y010692D01*
X019004Y010692D01*
X020756Y010936D02*
X020978Y010714D01*
X021301Y011036D01*
X021957Y011036D01*
X021957Y009855D01*
X022400Y009412D01*
X023039Y008920D02*
X023728Y008920D01*
X024024Y009215D01*
X024516Y008428D02*
X025008Y008920D01*
X026112Y008920D01*
X024516Y008428D02*
X024516Y008330D01*
X021366Y008969D02*
X021317Y008920D01*
X020605Y008920D01*
X020310Y009214D01*
X021957Y011036D02*
X022449Y011528D01*
X023384Y011676D02*
X026112Y011676D01*
X015746Y011204D02*
X015726Y011184D01*
X015411Y011184D01*
X015313Y011085D01*
X015313Y009904D01*
X015333Y009924D01*
X015746Y009924D01*
X015313Y009904D02*
X015313Y008772D01*
X014880Y010298D02*
X014427Y010298D01*
X014132Y010298D02*
X013669Y010298D01*
X013049Y006459D02*
X012921Y006332D01*
X012921Y005672D01*
X012921Y004786D01*
X012921Y003900D01*
X013669Y003900D02*
X014132Y003900D01*
X014673Y003900D02*
X014880Y003694D01*
X014880Y003507D01*
X015313Y003261D02*
X015411Y003162D01*
X015717Y003162D01*
X015746Y003133D01*
X016425Y003133D01*
X016543Y003015D01*
X017900Y003015D01*
X018143Y003257D01*
X019082Y004196D01*
X020263Y004196D01*
X020533Y003925D01*
X020755Y003704D01*
X021022Y003704D01*
X021120Y003802D01*
X021366Y003802D01*
X021563Y003802D01*
X021957Y003408D01*
X023039Y003408D01*
X022843Y003605D01*
X022843Y004097D01*
X022449Y004491D01*
X022449Y004983D01*
X022941Y005475D01*
X022941Y005721D01*
X023384Y006164D01*
X022892Y006164D01*
X022744Y006312D01*
X022203Y006312D01*
X021957Y006066D01*
X021465Y006066D01*
X021120Y006410D01*
X020405Y006410D01*
X020088Y006093D01*
X020978Y005202D02*
X021301Y005524D01*
X021957Y005524D01*
X021957Y004343D01*
X022400Y003900D01*
X021366Y003458D02*
X021317Y003408D01*
X020605Y003408D01*
X020310Y003703D01*
X023039Y003408D02*
X023728Y003408D01*
X024024Y003704D01*
X024516Y002916D02*
X025008Y003408D01*
X026112Y003408D01*
X024516Y002916D02*
X024516Y002818D01*
X020756Y005425D02*
X020511Y005180D01*
X019004Y005180D01*
X020756Y005425D02*
X020978Y005202D01*
X021957Y005524D02*
X022449Y006017D01*
X023384Y006164D02*
X026112Y006164D01*
X015746Y005692D02*
X015726Y005672D01*
X015411Y005672D01*
X015313Y005574D01*
X015313Y004393D01*
X015333Y004412D01*
X015746Y004412D01*
X015313Y004393D02*
X015313Y003261D01*
X014880Y004786D02*
X014427Y004786D01*
X014132Y004786D02*
X013669Y004786D01*
X013669Y005672D02*
X014132Y005672D01*
X014673Y005672D02*
X014880Y005879D01*
X014880Y006066D01*
D20*
X008287Y003015D02*
X006515Y004786D01*
X008287Y003015D02*
X012852Y003015D01*
X015746Y003881D02*
X015982Y003881D01*
X016150Y004048D01*
X016150Y005131D01*
X016346Y005328D01*
X016346Y005967D01*
X016494Y006115D01*
X016937Y006115D01*
X017183Y006361D01*
X017652Y006361D01*
X017920Y006093D01*
X018143Y006315D02*
X018343Y006115D01*
X018774Y006115D01*
X019419Y006761D01*
X019865Y006315D02*
X019468Y005918D01*
X019102Y005918D01*
X018143Y006315D02*
X017900Y006558D01*
X017085Y006558D01*
X016839Y006312D01*
X016396Y006312D01*
X016150Y006066D01*
X016150Y005426D01*
X015884Y005160D01*
X015746Y005160D01*
X015313Y005574D02*
X015313Y006706D01*
X015746Y006440D02*
X016228Y006440D01*
X016297Y006509D01*
X016740Y006509D01*
X016986Y006755D01*
X018149Y006755D01*
X018366Y006538D01*
X018588Y006761D02*
X018398Y006952D01*
X016740Y006952D01*
X016543Y006755D01*
X017475Y005647D02*
X017942Y005180D01*
X018295Y005180D01*
X018591Y004885D01*
X019791Y004835D02*
X020514Y004835D01*
X020978Y004371D01*
X020756Y004148D02*
X020364Y004540D01*
X020087Y004540D01*
X020533Y005647D02*
X020706Y005820D01*
X021268Y005820D01*
X020776Y006066D02*
X020506Y006066D01*
X020310Y005870D01*
X022941Y004786D02*
X023827Y004786D01*
X023531Y005180D02*
X025915Y005180D01*
X025915Y004393D02*
X023335Y004393D01*
X016150Y009560D02*
X015982Y009393D01*
X015746Y009393D01*
X016150Y009560D02*
X016150Y010643D01*
X016346Y010839D01*
X016346Y011479D01*
X016494Y011627D01*
X016937Y011627D01*
X017183Y011873D01*
X017652Y011873D01*
X017920Y011604D01*
X018143Y011827D02*
X017900Y012070D01*
X017085Y012070D01*
X016839Y011824D01*
X016396Y011824D01*
X016150Y011578D01*
X016150Y010938D01*
X015884Y010672D01*
X015746Y010672D01*
X015313Y011085D02*
X015313Y012217D01*
X015746Y011952D02*
X016228Y011952D01*
X016297Y012021D01*
X016740Y012021D01*
X016986Y012267D01*
X018149Y012267D01*
X018366Y012050D01*
X018588Y012273D02*
X018398Y012463D01*
X016740Y012463D01*
X016543Y012267D01*
X018143Y011827D02*
X018343Y011627D01*
X018774Y011627D01*
X019419Y012273D01*
X019865Y011827D02*
X019468Y011430D01*
X019102Y011430D01*
X020310Y011382D02*
X020506Y011578D01*
X020776Y011578D01*
X020706Y011332D02*
X021268Y011332D01*
X020706Y011332D02*
X020533Y011159D01*
X020514Y010347D02*
X019791Y010347D01*
X020087Y010052D02*
X020364Y010052D01*
X020756Y009660D01*
X020978Y009883D02*
X020514Y010347D01*
X018591Y010397D02*
X018295Y010692D01*
X017942Y010692D01*
X017475Y011159D01*
X012852Y008526D02*
X008287Y008526D01*
X006515Y010298D01*
X022941Y010298D02*
X023827Y010298D01*
X023531Y010692D02*
X025915Y010692D01*
X025915Y009904D02*
X023335Y009904D01*
D21*
X023464Y009726D02*
X024534Y009726D01*
X024534Y009560D01*
X024604Y009490D01*
X024967Y009490D01*
X024967Y009394D01*
X024604Y009394D01*
X024534Y009324D01*
X024534Y008754D01*
X024298Y008518D01*
X024298Y008239D01*
X024426Y008112D01*
X024606Y008112D01*
X024734Y008239D01*
X024734Y008338D01*
X024842Y008446D01*
X024967Y008446D01*
X024967Y008095D01*
X019713Y008095D01*
X019793Y008175D01*
X020016Y008398D01*
X020239Y008621D01*
X020417Y008799D01*
X020514Y008702D01*
X021407Y008702D01*
X021456Y008752D01*
X021584Y008879D01*
X021584Y009060D01*
X021530Y009114D01*
X021566Y009150D01*
X021594Y009192D01*
X021613Y009239D01*
X021623Y009288D01*
X021623Y009314D01*
X021623Y009339D01*
X021613Y009389D01*
X021594Y009436D01*
X021566Y009478D01*
X021530Y009514D01*
X021488Y009542D01*
X021441Y009561D01*
X021391Y009571D01*
X021366Y009571D01*
X021341Y009571D01*
X021291Y009561D01*
X021244Y009542D01*
X021202Y009514D01*
X021166Y009478D01*
X021138Y009436D01*
X021119Y009389D01*
X021109Y009339D01*
X021109Y009314D01*
X021366Y009314D01*
X021366Y009571D01*
X021366Y009314D01*
X021366Y009314D01*
X021366Y009314D01*
X021109Y009314D01*
X021109Y009288D01*
X021119Y009239D01*
X021138Y009192D01*
X021166Y009150D01*
X021178Y009138D01*
X020812Y009138D01*
X020822Y009148D01*
X020533Y009437D01*
X020533Y009437D01*
X020822Y009148D01*
X020915Y009241D01*
X020935Y009277D01*
X020946Y009317D01*
X020946Y009328D01*
X021130Y009511D01*
X021352Y009734D01*
X021352Y009833D01*
X020929Y010256D01*
X020857Y010256D01*
X020620Y010493D01*
X020649Y010521D01*
X020830Y010340D01*
X020929Y010340D01*
X021352Y010763D01*
X021352Y010780D01*
X021391Y010818D01*
X021739Y010818D01*
X021739Y009765D01*
X022309Y009194D01*
X022490Y009194D01*
X022617Y009322D01*
X022617Y009502D01*
X022174Y009945D01*
X022174Y010946D01*
X022667Y011438D01*
X022667Y011619D01*
X022539Y011746D01*
X022359Y011746D01*
X022214Y011601D01*
X022214Y011603D01*
X022204Y011653D01*
X022185Y011699D01*
X022156Y011742D01*
X022121Y011777D01*
X022079Y011806D01*
X022032Y011825D01*
X021982Y011835D01*
X021957Y011835D01*
X021957Y011578D01*
X021957Y011578D01*
X021957Y011835D01*
X021931Y011835D01*
X021882Y011825D01*
X021835Y011806D01*
X021793Y011777D01*
X021757Y011742D01*
X021729Y011699D01*
X021709Y011653D01*
X021700Y011603D01*
X021700Y011578D01*
X021957Y011578D01*
X021957Y011578D01*
X021700Y011578D01*
X021700Y011552D01*
X021709Y011503D01*
X021729Y011456D01*
X021757Y011414D01*
X021793Y011378D01*
X021835Y011350D01*
X021882Y011330D01*
X021931Y011320D01*
X021933Y011320D01*
X021866Y011254D01*
X021486Y011254D01*
X021486Y011422D01*
X021358Y011549D01*
X021178Y011549D01*
X021138Y011510D01*
X020993Y011510D01*
X020993Y011668D01*
X020866Y011795D01*
X020685Y011795D01*
X020646Y011756D01*
X020492Y011756D01*
X020490Y011765D01*
X020469Y011801D01*
X020377Y011893D01*
X020088Y011604D01*
X019799Y011315D01*
X019891Y011223D01*
X019927Y011202D01*
X019968Y011191D01*
X019979Y011191D01*
X020159Y011011D01*
X020260Y010910D01*
X018914Y010910D01*
X018786Y010782D01*
X018786Y010602D01*
X018914Y010474D01*
X019610Y010474D01*
X019574Y010438D01*
X019574Y010257D01*
X019701Y010129D01*
X019869Y010129D01*
X019869Y009962D01*
X019996Y009834D01*
X020177Y009834D01*
X020216Y009874D01*
X020290Y009874D01*
X020342Y009822D01*
X020337Y009819D01*
X020244Y009726D01*
X020151Y009634D01*
X020131Y009597D01*
X020120Y009557D01*
X020120Y009546D01*
X019939Y009366D01*
X019716Y009143D01*
X019494Y008920D01*
X019271Y008698D01*
X019046Y008472D01*
X019046Y008373D01*
X019324Y008095D01*
X018684Y008095D01*
X018962Y008373D01*
X018962Y008472D01*
X018740Y008695D01*
X018556Y008878D01*
X018556Y008889D01*
X018545Y008929D01*
X018525Y008965D01*
X018432Y009058D01*
X018143Y008769D01*
X018143Y008769D01*
X017854Y008480D01*
X017947Y008387D01*
X017983Y008367D01*
X018023Y008356D01*
X018034Y008356D01*
X018217Y008172D01*
X018295Y008095D01*
X012785Y008095D01*
X012785Y008289D01*
X012951Y008289D01*
X013090Y008428D01*
X013090Y008625D01*
X012951Y008764D01*
X012785Y008764D01*
X014101Y008764D01*
X014101Y008772D02*
X014101Y008745D01*
X014112Y008692D01*
X014133Y008641D01*
X014163Y008596D01*
X014201Y008557D01*
X014247Y008527D01*
X014297Y008506D01*
X014351Y008496D01*
X014378Y008496D01*
X014405Y008496D01*
X014459Y008506D01*
X014509Y008527D01*
X014554Y008557D01*
X014593Y008596D01*
X014623Y008641D01*
X014644Y008692D01*
X014646Y008702D01*
X015205Y008702D01*
X015275Y008772D01*
X015275Y009265D01*
X015205Y009335D01*
X015059Y009335D01*
X014763Y009630D01*
X014583Y009630D01*
X014455Y009502D01*
X014455Y009322D01*
X014499Y009279D01*
X014485Y009265D01*
X014485Y009028D01*
X014459Y009039D01*
X014405Y009049D01*
X014378Y009049D01*
X014378Y008773D01*
X014378Y008773D01*
X014378Y009049D01*
X014351Y009049D01*
X014297Y009039D01*
X014247Y009018D01*
X014201Y008988D01*
X014163Y008949D01*
X014133Y008904D01*
X014112Y008853D01*
X014101Y008800D01*
X014101Y008772D01*
X014378Y008772D01*
X014378Y008496D01*
X014378Y008772D01*
X014378Y008772D01*
X014378Y008772D01*
X014101Y008772D01*
X014145Y008923D02*
X012785Y008923D01*
X012785Y008998D02*
X013227Y008998D01*
X013295Y009066D01*
X013364Y008998D01*
X013975Y008998D01*
X014045Y009068D01*
X014045Y009194D01*
X014222Y009194D01*
X014350Y009322D01*
X014350Y009502D01*
X014222Y009630D01*
X014045Y009630D01*
X014045Y009757D01*
X013975Y009827D01*
X013364Y009827D01*
X013295Y009758D01*
X013227Y009827D01*
X013139Y009827D01*
X013139Y009883D01*
X013227Y009883D01*
X013295Y009952D01*
X013364Y009883D01*
X013975Y009883D01*
X014045Y009953D01*
X014045Y010080D01*
X014222Y010080D01*
X014280Y010138D01*
X014337Y010080D01*
X014485Y010080D01*
X014485Y010052D01*
X014555Y009982D01*
X015205Y009982D01*
X015275Y010052D01*
X015275Y010544D01*
X015205Y010614D01*
X014555Y010614D01*
X014485Y010544D01*
X014485Y010516D01*
X014337Y010516D01*
X014280Y010458D01*
X014222Y010516D01*
X014045Y010516D01*
X014045Y010643D01*
X013975Y010713D01*
X013364Y010713D01*
X013295Y010644D01*
X013227Y010713D01*
X013139Y010713D01*
X013139Y010769D01*
X013227Y010769D01*
X013295Y010838D01*
X013364Y010769D01*
X013975Y010769D01*
X014045Y010839D01*
X014045Y010966D01*
X014222Y010966D01*
X014350Y011094D01*
X014350Y011274D01*
X014222Y011402D01*
X014045Y011402D01*
X014045Y011529D01*
X013975Y011599D01*
X013364Y011599D01*
X013295Y011530D01*
X013227Y011599D01*
X013139Y011599D01*
X013139Y011753D01*
X013267Y011881D01*
X013267Y012062D01*
X013139Y012189D01*
X012959Y012189D01*
X012785Y012015D01*
X012785Y012502D01*
X016526Y012502D01*
X016509Y012484D01*
X016453Y012484D01*
X016326Y012357D01*
X016326Y012199D01*
X016223Y012199D01*
X016154Y012130D01*
X016141Y012130D01*
X016141Y012198D01*
X016071Y012268D01*
X015565Y012268D01*
X015560Y012292D01*
X015541Y012339D01*
X015513Y012381D01*
X015477Y012417D01*
X015435Y012445D01*
X015388Y012465D01*
X015338Y012475D01*
X015313Y012475D01*
X015288Y012475D01*
X015238Y012465D01*
X015191Y012445D01*
X015149Y012417D01*
X015113Y012381D01*
X015085Y012339D01*
X015066Y012292D01*
X015056Y012243D01*
X015056Y012217D01*
X015056Y012192D01*
X015066Y012142D01*
X015085Y012096D01*
X015113Y012053D01*
X015149Y012018D01*
X015191Y011989D01*
X015238Y011970D01*
X015288Y011960D01*
X015313Y011960D01*
X015338Y011960D01*
X015351Y011963D01*
X015351Y011705D01*
X015421Y011635D01*
X015971Y011635D01*
X015971Y011559D01*
X015764Y011559D01*
X015764Y011222D01*
X015728Y011222D01*
X015728Y011559D01*
X015450Y011559D01*
X015409Y011548D01*
X015373Y011527D01*
X015343Y011498D01*
X015323Y011462D01*
X015312Y011421D01*
X015312Y011222D01*
X015728Y011222D01*
X015728Y011185D01*
X015312Y011185D01*
X015312Y010986D01*
X015323Y010945D01*
X015343Y010909D01*
X015351Y010902D01*
X015351Y010426D01*
X015421Y010356D01*
X015971Y010356D01*
X015971Y010280D01*
X015764Y010280D01*
X015764Y009942D01*
X015728Y009942D01*
X015728Y009906D01*
X015312Y009906D01*
X015312Y009706D01*
X015323Y009666D01*
X015343Y009630D01*
X015351Y009622D01*
X015351Y009146D01*
X015421Y009076D01*
X016071Y009076D01*
X016141Y009146D01*
X016141Y009299D01*
X016161Y009319D01*
X016328Y009486D01*
X016328Y010569D01*
X016525Y010766D01*
X016525Y011405D01*
X016568Y011448D01*
X017011Y011448D01*
X017115Y011553D01*
X017257Y011694D01*
X017488Y011694D01*
X017324Y011530D01*
X017101Y011307D01*
X016881Y011088D01*
X016656Y010862D01*
X016656Y010763D01*
X017079Y010340D01*
X017178Y010340D01*
X017403Y010565D01*
X017403Y010565D01*
X017610Y010772D01*
X017764Y010618D01*
X017868Y010513D01*
X018221Y010513D01*
X018373Y010362D01*
X018373Y010306D01*
X018500Y010179D01*
X018681Y010179D01*
X018808Y010306D01*
X018808Y010487D01*
X018681Y010614D01*
X018625Y010614D01*
X018369Y010870D01*
X018016Y010870D01*
X017862Y011024D01*
X018069Y011231D01*
X018287Y011448D01*
X018848Y011448D01*
X018885Y011485D01*
X018885Y011340D01*
X019012Y011212D01*
X019193Y011212D01*
X019232Y011252D01*
X019542Y011252D01*
X019646Y011356D01*
X019703Y011413D01*
X019706Y011408D01*
X019799Y011315D01*
X020088Y011604D01*
X020088Y011604D01*
X020088Y011604D01*
X020377Y011893D01*
X020284Y011986D01*
X020248Y012007D01*
X020207Y012018D01*
X020197Y012018D01*
X020013Y012201D01*
X019791Y012424D01*
X019713Y012502D01*
X024967Y012502D01*
X024967Y012189D01*
X024633Y012189D01*
X024592Y012178D01*
X024556Y012157D01*
X024527Y012128D01*
X024506Y012092D01*
X024495Y012051D01*
X024495Y011756D01*
X024967Y011756D01*
X024967Y011596D01*
X024495Y011596D01*
X024495Y011301D01*
X024506Y011260D01*
X024527Y011224D01*
X024556Y011195D01*
X024592Y011174D01*
X024633Y011163D01*
X024967Y011163D01*
X024967Y011106D01*
X024604Y011106D01*
X024534Y011037D01*
X024534Y010870D01*
X023661Y010870D01*
X023622Y010910D01*
X023441Y010910D01*
X023314Y010782D01*
X023314Y010602D01*
X023439Y010477D01*
X023071Y010477D01*
X023031Y010516D01*
X022851Y010516D01*
X022723Y010388D01*
X022723Y010208D01*
X022851Y010080D01*
X023031Y010080D01*
X023071Y010120D01*
X023242Y010120D01*
X023117Y009995D01*
X023117Y009814D01*
X023244Y009687D01*
X023425Y009687D01*
X023464Y009726D01*
X023453Y009715D02*
X024534Y009715D01*
X024537Y009557D02*
X022563Y009557D01*
X022405Y009715D02*
X023216Y009715D01*
X023117Y009874D02*
X022246Y009874D01*
X022174Y010032D02*
X023154Y010032D01*
X022740Y010191D02*
X022174Y010191D01*
X022174Y010349D02*
X022723Y010349D01*
X022842Y010508D02*
X022174Y010508D01*
X022174Y010666D02*
X023314Y010666D01*
X023356Y010825D02*
X022174Y010825D01*
X022212Y010983D02*
X024534Y010983D01*
X024495Y011300D02*
X022529Y011300D01*
X022370Y011142D02*
X024967Y011142D01*
X024495Y011459D02*
X022667Y011459D01*
X022667Y011617D02*
X024967Y011617D01*
X024495Y011776D02*
X022122Y011776D01*
X021957Y011776D02*
X021957Y011776D01*
X021957Y011617D02*
X021957Y011617D01*
X021791Y011776D02*
X020886Y011776D01*
X020993Y011617D02*
X021702Y011617D01*
X021728Y011459D02*
X021449Y011459D01*
X021486Y011300D02*
X021912Y011300D01*
X022211Y011617D02*
X022229Y011617D01*
X020666Y011776D02*
X020484Y011776D01*
X020336Y011934D02*
X024495Y011934D01*
X024506Y012093D02*
X020122Y012093D01*
X019963Y012251D02*
X024967Y012251D01*
X024967Y012410D02*
X019805Y012410D01*
X020259Y011776D02*
X020259Y011776D01*
X020100Y011617D02*
X020100Y011617D01*
X019942Y011459D02*
X019942Y011459D01*
X019814Y011300D02*
X019590Y011300D01*
X020028Y011142D02*
X017980Y011142D01*
X017903Y010983D02*
X020187Y010983D01*
X020635Y010508D02*
X020662Y010508D01*
X020764Y010349D02*
X020821Y010349D01*
X020938Y010349D02*
X021739Y010349D01*
X021739Y010191D02*
X020995Y010191D01*
X021153Y010032D02*
X021739Y010032D01*
X021739Y009874D02*
X021312Y009874D01*
X021333Y009715D02*
X021789Y009715D01*
X021947Y009557D02*
X021452Y009557D01*
X021366Y009557D02*
X021366Y009557D01*
X021280Y009557D02*
X021175Y009557D01*
X021123Y009398D02*
X021016Y009398D01*
X020913Y009240D02*
X021119Y009240D01*
X021366Y009314D02*
X021366Y009314D01*
X021623Y009314D01*
X021366Y009314D01*
X021366Y009398D02*
X021366Y009398D01*
X021610Y009398D02*
X022106Y009398D01*
X022264Y009240D02*
X021614Y009240D01*
X021530Y009114D02*
X021530Y009114D01*
X021562Y009081D02*
X022838Y009081D01*
X022840Y009084D02*
X022811Y009042D01*
X022792Y008995D01*
X022782Y008945D01*
X022782Y008920D01*
X022782Y008895D01*
X022792Y008845D01*
X022811Y008798D01*
X022840Y008756D01*
X022875Y008720D01*
X022918Y008692D01*
X022964Y008673D01*
X023014Y008663D01*
X023039Y008663D01*
X023039Y008920D01*
X022782Y008920D01*
X023039Y008920D01*
X023039Y008920D01*
X023039Y008920D01*
X023039Y009177D01*
X023014Y009177D01*
X022964Y009167D01*
X022918Y009148D01*
X022875Y009120D01*
X022840Y009084D01*
X022782Y008923D02*
X021584Y008923D01*
X021469Y008764D02*
X022834Y008764D01*
X023039Y008764D02*
X023039Y008764D01*
X023039Y008663D02*
X023065Y008663D01*
X023114Y008673D01*
X023161Y008692D01*
X023203Y008720D01*
X023239Y008756D01*
X023267Y008798D01*
X023287Y008845D01*
X023297Y008895D01*
X023297Y008920D01*
X023039Y008920D01*
X023039Y008920D01*
X023039Y008663D01*
X023244Y008764D02*
X024534Y008764D01*
X024534Y008923D02*
X023297Y008923D01*
X023297Y008920D02*
X023297Y008945D01*
X023287Y008995D01*
X023267Y009042D01*
X023239Y009084D01*
X023203Y009120D01*
X023161Y009148D01*
X023114Y009167D01*
X023065Y009177D01*
X023039Y009177D01*
X023039Y008920D01*
X023039Y008920D01*
X023297Y008920D01*
X023241Y009081D02*
X023804Y009081D01*
X023796Y009094D02*
X023824Y009051D01*
X023860Y009016D01*
X023902Y008988D01*
X023949Y008968D01*
X023998Y008958D01*
X024024Y008958D01*
X024049Y008958D01*
X024099Y008968D01*
X024145Y008988D01*
X024188Y009016D01*
X024223Y009051D01*
X024252Y009094D01*
X024271Y009140D01*
X024281Y009190D01*
X024281Y009215D01*
X024024Y009215D01*
X024024Y009215D01*
X024024Y008958D01*
X024024Y009215D01*
X024024Y009215D01*
X024281Y009215D01*
X024281Y009241D01*
X024271Y009290D01*
X024252Y009337D01*
X024223Y009379D01*
X024188Y009415D01*
X024145Y009443D01*
X024099Y009463D01*
X024049Y009473D01*
X024024Y009473D01*
X024024Y009215D01*
X023766Y009215D01*
X023766Y009190D01*
X023776Y009140D01*
X023796Y009094D01*
X023766Y009215D02*
X024024Y009215D01*
X024024Y009215D01*
X024024Y009215D01*
X024024Y009473D01*
X023998Y009473D01*
X023949Y009463D01*
X023902Y009443D01*
X023860Y009415D01*
X023824Y009379D01*
X023796Y009337D01*
X023776Y009290D01*
X023766Y009241D01*
X023766Y009215D01*
X023766Y009240D02*
X022535Y009240D01*
X022617Y009398D02*
X023843Y009398D01*
X024024Y009398D02*
X024024Y009398D01*
X024024Y009240D02*
X024024Y009240D01*
X024024Y009081D02*
X024024Y009081D01*
X024243Y009081D02*
X024534Y009081D01*
X024534Y009240D02*
X024281Y009240D01*
X024205Y009398D02*
X024967Y009398D01*
X024385Y008606D02*
X020224Y008606D01*
X020382Y008764D02*
X020453Y008764D01*
X019655Y009081D02*
X018409Y009081D01*
X018432Y009058D02*
X018339Y009151D01*
X018303Y009171D01*
X018263Y009182D01*
X018252Y009182D01*
X018071Y009363D01*
X017849Y009586D01*
X017626Y009808D01*
X017403Y010031D01*
X017178Y010256D01*
X017079Y010256D01*
X016656Y009833D01*
X016656Y009734D01*
X016881Y009509D01*
X017104Y009286D01*
X017326Y009063D01*
X017549Y008840D01*
X017730Y008660D01*
X017730Y008649D01*
X017741Y008609D01*
X017761Y008573D01*
X017854Y008480D01*
X018143Y008769D01*
X018143Y008769D01*
X018432Y009058D01*
X018547Y008923D02*
X019496Y008923D01*
X019338Y008764D02*
X018670Y008764D01*
X018829Y008606D02*
X019179Y008606D01*
X019046Y008447D02*
X018962Y008447D01*
X018878Y008289D02*
X019130Y008289D01*
X019289Y008130D02*
X018719Y008130D01*
X018260Y008130D02*
X012785Y008130D01*
X012785Y008289D02*
X016446Y008289D01*
X016468Y008279D02*
X016518Y008269D01*
X016543Y008269D01*
X016543Y008526D01*
X016543Y008526D01*
X016286Y008526D01*
X016286Y008501D01*
X016296Y008451D01*
X016315Y008405D01*
X016344Y008362D01*
X016379Y008327D01*
X016421Y008299D01*
X016468Y008279D01*
X016543Y008289D02*
X016543Y008289D01*
X016543Y008269D02*
X016569Y008269D01*
X016618Y008279D01*
X016665Y008299D01*
X016707Y008327D01*
X016743Y008362D01*
X016771Y008405D01*
X016791Y008451D01*
X016800Y008501D01*
X016800Y008526D01*
X016543Y008526D01*
X016543Y008526D01*
X016543Y008269D01*
X016641Y008289D02*
X018101Y008289D01*
X017887Y008447D02*
X016789Y008447D01*
X016800Y008526D02*
X016543Y008526D01*
X016286Y008526D01*
X016286Y008552D01*
X016296Y008601D01*
X016315Y008648D01*
X016344Y008690D01*
X016379Y008726D01*
X016421Y008754D01*
X016468Y008774D01*
X016518Y008784D01*
X016543Y008784D01*
X016543Y008526D01*
X016543Y008526D01*
X016543Y008526D01*
X016543Y008784D01*
X016569Y008784D01*
X016618Y008774D01*
X016665Y008754D01*
X016707Y008726D01*
X016743Y008690D01*
X016771Y008648D01*
X016791Y008601D01*
X016800Y008552D01*
X016800Y008526D01*
X016789Y008606D02*
X017742Y008606D01*
X017626Y008764D02*
X016642Y008764D01*
X016543Y008764D02*
X016543Y008764D01*
X016445Y008764D02*
X016180Y008764D01*
X016180Y008862D02*
X016170Y008903D01*
X016149Y008939D01*
X016119Y008968D01*
X016083Y008989D01*
X016043Y009000D01*
X015764Y009000D01*
X015764Y008663D01*
X015728Y008663D01*
X015728Y009000D01*
X015450Y009000D01*
X015409Y008989D01*
X015373Y008968D01*
X015343Y008939D01*
X015323Y008903D01*
X015312Y008862D01*
X015312Y008663D01*
X015728Y008663D01*
X015728Y008626D01*
X015764Y008626D01*
X015764Y008289D01*
X016043Y008289D01*
X016083Y008300D01*
X016119Y008321D01*
X016149Y008350D01*
X016170Y008386D01*
X016180Y008427D01*
X016180Y008626D01*
X015764Y008626D01*
X015764Y008663D01*
X016180Y008663D01*
X016180Y008862D01*
X016158Y008923D02*
X017467Y008923D01*
X017309Y009081D02*
X016076Y009081D01*
X016141Y009240D02*
X017150Y009240D01*
X016992Y009398D02*
X016240Y009398D01*
X016328Y009557D02*
X016833Y009557D01*
X016675Y009715D02*
X016328Y009715D01*
X016328Y009874D02*
X016696Y009874D01*
X016855Y010032D02*
X016328Y010032D01*
X016328Y010191D02*
X017013Y010191D01*
X017070Y010349D02*
X016328Y010349D01*
X015971Y010349D02*
X015275Y010349D01*
X015373Y010248D02*
X015343Y010218D01*
X015323Y010182D01*
X015312Y010142D01*
X015312Y009942D01*
X015728Y009942D01*
X015728Y010280D01*
X015450Y010280D01*
X015409Y010269D01*
X015373Y010248D01*
X015327Y010191D02*
X015275Y010191D01*
X015255Y010032D02*
X015312Y010032D01*
X015312Y009874D02*
X013139Y009874D01*
X014045Y010032D02*
X014505Y010032D01*
X014045Y009715D02*
X015312Y009715D01*
X015351Y009557D02*
X014837Y009557D01*
X014510Y009557D02*
X014296Y009557D01*
X014350Y009398D02*
X014455Y009398D01*
X014485Y009240D02*
X014267Y009240D01*
X014485Y009081D02*
X014045Y009081D01*
X014378Y008923D02*
X014378Y008923D01*
X014378Y008764D02*
X014378Y008764D01*
X014378Y008606D02*
X014378Y008606D01*
X014599Y008606D02*
X015312Y008606D01*
X015312Y008626D02*
X015312Y008427D01*
X015323Y008386D01*
X015343Y008350D01*
X015373Y008321D01*
X015409Y008300D01*
X015450Y008289D01*
X015728Y008289D01*
X015728Y008626D01*
X015312Y008626D01*
X015312Y008764D02*
X015267Y008764D01*
X015275Y008923D02*
X015334Y008923D01*
X015275Y009081D02*
X015416Y009081D01*
X015351Y009240D02*
X015275Y009240D01*
X015351Y009398D02*
X014995Y009398D01*
X015728Y008923D02*
X015764Y008923D01*
X015764Y008764D02*
X015728Y008764D01*
X015728Y008606D02*
X015764Y008606D01*
X015764Y008447D02*
X015728Y008447D01*
X015312Y008447D02*
X013090Y008447D01*
X013090Y008606D02*
X014157Y008606D01*
X012785Y008764D02*
X012785Y008998D01*
X015728Y010032D02*
X015764Y010032D01*
X015764Y010191D02*
X015728Y010191D01*
X015351Y010508D02*
X015275Y010508D01*
X015351Y010666D02*
X014021Y010666D01*
X014030Y010825D02*
X015351Y010825D01*
X015312Y010983D02*
X014780Y010983D01*
X014763Y010966D02*
X015059Y011261D01*
X015205Y011261D01*
X015275Y011331D01*
X015275Y011824D01*
X015205Y011894D01*
X014555Y011894D01*
X014485Y011824D01*
X014485Y011331D01*
X014499Y011317D01*
X014455Y011274D01*
X014455Y011094D01*
X014583Y010966D01*
X014763Y010966D01*
X014566Y010983D02*
X014239Y010983D01*
X014350Y011142D02*
X014455Y011142D01*
X014481Y011300D02*
X014324Y011300D01*
X014485Y011459D02*
X014045Y011459D01*
X014485Y011617D02*
X013139Y011617D01*
X013161Y011776D02*
X014485Y011776D01*
X015087Y012093D02*
X013236Y012093D01*
X013267Y011934D02*
X015351Y011934D01*
X015313Y011960D02*
X015313Y012217D01*
X015313Y012217D01*
X015313Y011960D01*
X015313Y012093D02*
X015313Y012093D01*
X015313Y012217D02*
X015056Y012217D01*
X015313Y012217D01*
X015313Y012217D01*
X015313Y012475D01*
X015313Y012217D01*
X015313Y012217D01*
X015313Y012251D02*
X015313Y012251D01*
X015313Y012410D02*
X015313Y012410D01*
X015484Y012410D02*
X016378Y012410D01*
X016326Y012251D02*
X016088Y012251D01*
X015351Y011776D02*
X015275Y011776D01*
X015275Y011617D02*
X015971Y011617D01*
X015764Y011459D02*
X015728Y011459D01*
X015322Y011459D02*
X015275Y011459D01*
X015244Y011300D02*
X015312Y011300D01*
X015312Y011142D02*
X014939Y011142D01*
X015728Y011300D02*
X015764Y011300D01*
X016525Y011300D02*
X017094Y011300D01*
X017101Y011307D02*
X017101Y011307D01*
X016935Y011142D02*
X016525Y011142D01*
X016525Y010983D02*
X016777Y010983D01*
X016881Y011088D02*
X016881Y011088D01*
X016656Y010825D02*
X016525Y010825D01*
X016425Y010666D02*
X016753Y010666D01*
X016911Y010508D02*
X016328Y010508D01*
X017187Y010349D02*
X018373Y010349D01*
X018488Y010191D02*
X017244Y010191D01*
X017402Y010032D02*
X019869Y010032D01*
X019957Y009874D02*
X017561Y009874D01*
X017719Y009715D02*
X020233Y009715D01*
X020244Y009726D02*
X020533Y009437D01*
X020533Y009437D01*
X020244Y009726D01*
X020255Y009715D02*
X020255Y009715D01*
X020290Y009874D02*
X020216Y009874D01*
X020120Y009557D02*
X017878Y009557D01*
X018036Y009398D02*
X019972Y009398D01*
X019813Y009240D02*
X018195Y009240D01*
X018297Y008923D02*
X018297Y008923D01*
X018138Y008764D02*
X018138Y008764D01*
X017980Y008606D02*
X017980Y008606D01*
X016543Y008606D02*
X016543Y008606D01*
X016298Y008606D02*
X016180Y008606D01*
X016180Y008447D02*
X016298Y008447D01*
X016543Y008447D02*
X016543Y008447D01*
X016526Y006990D02*
X016509Y006973D01*
X016453Y006973D01*
X016326Y006845D01*
X016326Y006687D01*
X016223Y006687D01*
X016154Y006618D01*
X016141Y006618D01*
X016141Y006686D01*
X016071Y006756D01*
X015565Y006756D01*
X015560Y006781D01*
X015541Y006827D01*
X015513Y006869D01*
X015477Y006905D01*
X015435Y006933D01*
X015388Y006953D01*
X015338Y006963D01*
X015313Y006963D01*
X015288Y006963D01*
X015238Y006953D01*
X015191Y006933D01*
X015149Y006905D01*
X015113Y006869D01*
X015085Y006827D01*
X015066Y006781D01*
X015056Y006731D01*
X015056Y006706D01*
X015313Y006706D01*
X015313Y006963D01*
X015313Y006706D01*
X015313Y006706D01*
X015313Y006706D01*
X015056Y006706D01*
X015056Y006680D01*
X015066Y006631D01*
X015085Y006584D01*
X015113Y006542D01*
X015149Y006506D01*
X015191Y006478D01*
X015238Y006458D01*
X015288Y006448D01*
X015313Y006448D01*
X015338Y006448D01*
X015351Y006451D01*
X015351Y006194D01*
X015421Y006124D01*
X015971Y006124D01*
X015971Y006047D01*
X015764Y006047D01*
X015764Y005710D01*
X015728Y005710D01*
X015728Y006047D01*
X015450Y006047D01*
X015409Y006037D01*
X015373Y006016D01*
X015343Y005986D01*
X015323Y005950D01*
X015312Y005910D01*
X015312Y005710D01*
X015728Y005710D01*
X015728Y005673D01*
X015312Y005673D01*
X015312Y005474D01*
X015323Y005434D01*
X015343Y005397D01*
X015351Y005390D01*
X015351Y004914D01*
X015421Y004844D01*
X015971Y004844D01*
X015971Y004768D01*
X015764Y004768D01*
X015764Y004431D01*
X015728Y004431D01*
X015728Y004768D01*
X015450Y004768D01*
X015409Y004757D01*
X015373Y004736D01*
X015343Y004707D01*
X015323Y004670D01*
X015312Y004630D01*
X015312Y004431D01*
X015728Y004431D01*
X015728Y004394D01*
X015312Y004394D01*
X015312Y004195D01*
X015323Y004154D01*
X015343Y004118D01*
X015351Y004110D01*
X015351Y003634D01*
X015421Y003565D01*
X016071Y003565D01*
X016141Y003634D01*
X016141Y003787D01*
X016161Y003807D01*
X016328Y003974D01*
X016328Y005057D01*
X016525Y005254D01*
X016525Y005893D01*
X016568Y005937D01*
X017011Y005937D01*
X017115Y006041D01*
X017257Y006183D01*
X017488Y006183D01*
X017324Y006018D01*
X017101Y005796D01*
X016878Y005573D01*
X016656Y005350D01*
X016656Y005251D01*
X017079Y004828D01*
X017178Y004828D01*
X017401Y005051D01*
X017610Y005260D01*
X017764Y005106D01*
X017868Y005002D01*
X018221Y005002D01*
X018373Y004850D01*
X018373Y004794D01*
X018500Y004667D01*
X018681Y004667D01*
X018808Y004794D01*
X018808Y004975D01*
X018681Y005102D01*
X018625Y005102D01*
X018369Y005358D01*
X018016Y005358D01*
X017862Y005512D01*
X018069Y005719D01*
X018287Y005937D01*
X018848Y005937D01*
X018885Y005974D01*
X018885Y005828D01*
X019012Y005700D01*
X019193Y005700D01*
X019232Y005740D01*
X019542Y005740D01*
X019646Y005844D01*
X019703Y005901D01*
X019706Y005896D01*
X019799Y005804D01*
X019891Y005711D01*
X019927Y005690D01*
X019968Y005679D01*
X019979Y005679D01*
X020159Y005499D01*
X020260Y005398D01*
X018914Y005398D01*
X018786Y005270D01*
X018786Y005090D01*
X018914Y004962D01*
X019610Y004962D01*
X019574Y004926D01*
X019574Y004745D01*
X019701Y004618D01*
X019869Y004618D01*
X019869Y004450D01*
X019996Y004322D01*
X020177Y004322D01*
X020216Y004362D01*
X020290Y004362D01*
X020342Y004310D01*
X020337Y004307D01*
X020244Y004214D01*
X020151Y004122D01*
X020131Y004086D01*
X020120Y004045D01*
X020120Y004034D01*
X019939Y003854D01*
X019716Y003631D01*
X019494Y003408D01*
X019271Y003186D01*
X019046Y002960D01*
X019046Y002861D01*
X019324Y002583D01*
X018684Y002583D01*
X018962Y002861D01*
X018962Y002960D01*
X018740Y003183D01*
X018556Y003366D01*
X018556Y003377D01*
X018545Y003417D01*
X018525Y003454D01*
X018432Y003546D01*
X018143Y003257D01*
X017854Y002968D01*
X017947Y002876D01*
X017983Y002855D01*
X018023Y002844D01*
X018034Y002844D01*
X018217Y002661D01*
X018295Y002583D01*
X012785Y002583D01*
X012785Y002777D01*
X012951Y002777D01*
X013090Y002916D01*
X013090Y003113D01*
X012951Y003252D01*
X012785Y003252D01*
X012785Y003486D01*
X013227Y003486D01*
X013295Y003554D01*
X013364Y003486D01*
X013975Y003486D01*
X014045Y003556D01*
X014045Y003683D01*
X014222Y003683D01*
X014350Y003810D01*
X014350Y003991D01*
X014222Y004118D01*
X014045Y004118D01*
X014045Y004245D01*
X013975Y004315D01*
X013364Y004315D01*
X013295Y004246D01*
X013227Y004315D01*
X013139Y004315D01*
X013139Y004372D01*
X013227Y004372D01*
X013295Y004440D01*
X013364Y004372D01*
X013975Y004372D01*
X014045Y004442D01*
X014045Y004568D01*
X014222Y004568D01*
X014280Y004626D01*
X014337Y004568D01*
X014485Y004568D01*
X014485Y004540D01*
X014555Y004470D01*
X015205Y004470D01*
X015275Y004540D01*
X015275Y005033D01*
X015205Y005102D01*
X014555Y005102D01*
X014485Y005033D01*
X014485Y005004D01*
X014337Y005004D01*
X014280Y004947D01*
X014222Y005004D01*
X014045Y005004D01*
X014045Y005131D01*
X013975Y005201D01*
X013364Y005201D01*
X013295Y005132D01*
X013227Y005201D01*
X013139Y005201D01*
X013139Y005257D01*
X013227Y005257D01*
X013295Y005326D01*
X013364Y005257D01*
X013975Y005257D01*
X014045Y005327D01*
X014045Y005454D01*
X014222Y005454D01*
X014350Y005582D01*
X014350Y005762D01*
X014222Y005890D01*
X014045Y005890D01*
X014045Y006017D01*
X013975Y006087D01*
X013364Y006087D01*
X013295Y006018D01*
X013227Y006087D01*
X013139Y006087D01*
X013139Y006241D01*
X013267Y006369D01*
X013267Y006550D01*
X013139Y006677D01*
X012959Y006677D01*
X012785Y006503D01*
X012785Y006990D01*
X016526Y006990D01*
X016343Y006862D02*
X015518Y006862D01*
X015313Y006862D02*
X015313Y006862D01*
X015313Y006706D02*
X015313Y006448D01*
X015313Y006706D01*
X015313Y006706D01*
X015313Y006704D02*
X015313Y006704D01*
X015056Y006704D02*
X012785Y006704D01*
X012785Y006862D02*
X015108Y006862D01*
X015111Y006545D02*
X013267Y006545D01*
X013267Y006387D02*
X015351Y006387D01*
X015275Y006312D02*
X015205Y006382D01*
X014555Y006382D01*
X014485Y006312D01*
X014485Y005820D01*
X014499Y005806D01*
X014455Y005762D01*
X014455Y005582D01*
X014583Y005454D01*
X014763Y005454D01*
X014891Y005582D01*
X014970Y005661D01*
X014970Y005661D01*
X015059Y005750D01*
X015205Y005750D01*
X015275Y005820D01*
X015275Y006312D01*
X015275Y006228D02*
X015351Y006228D01*
X015275Y006070D02*
X015971Y006070D01*
X015764Y005911D02*
X015728Y005911D01*
X015728Y005753D02*
X015764Y005753D01*
X015312Y005753D02*
X015208Y005753D01*
X015275Y005911D02*
X015312Y005911D01*
X015312Y005594D02*
X014903Y005594D01*
X014891Y005582D02*
X014891Y005582D01*
X014455Y005594D02*
X014350Y005594D01*
X014350Y005753D02*
X014455Y005753D01*
X014485Y005911D02*
X014045Y005911D01*
X013992Y006070D02*
X014485Y006070D01*
X014485Y006228D02*
X013139Y006228D01*
X013244Y006070D02*
X013347Y006070D01*
X012827Y006545D02*
X012785Y006545D01*
X014045Y005436D02*
X015322Y005436D01*
X015351Y005277D02*
X013994Y005277D01*
X014045Y005119D02*
X015351Y005119D01*
X015351Y004960D02*
X015275Y004960D01*
X015275Y004802D02*
X015971Y004802D01*
X015764Y004643D02*
X015728Y004643D01*
X015315Y004643D02*
X015275Y004643D01*
X015312Y004485D02*
X015219Y004485D01*
X015312Y004326D02*
X013139Y004326D01*
X014045Y004168D02*
X015319Y004168D01*
X015351Y004009D02*
X014873Y004009D01*
X014763Y004118D02*
X014583Y004118D01*
X014455Y003991D01*
X014455Y003810D01*
X014499Y003767D01*
X014485Y003753D01*
X014485Y003516D01*
X014459Y003527D01*
X014405Y003538D01*
X014378Y003538D01*
X014378Y003261D01*
X014378Y003261D01*
X014378Y003538D01*
X014351Y003538D01*
X014297Y003527D01*
X014247Y003506D01*
X014201Y003476D01*
X014163Y003437D01*
X014133Y003392D01*
X014112Y003341D01*
X014101Y003288D01*
X014101Y003261D01*
X014378Y003261D01*
X014378Y003261D01*
X014101Y003261D01*
X014101Y003233D01*
X014112Y003180D01*
X014133Y003130D01*
X014163Y003084D01*
X014201Y003046D01*
X014247Y003015D01*
X014297Y002994D01*
X014351Y002984D01*
X014378Y002984D01*
X014405Y002984D01*
X014459Y002994D01*
X014509Y003015D01*
X014554Y003046D01*
X014593Y003084D01*
X014623Y003130D01*
X014644Y003180D01*
X014646Y003191D01*
X015205Y003191D01*
X015275Y003260D01*
X015275Y003753D01*
X015205Y003823D01*
X015059Y003823D01*
X014763Y004118D01*
X014474Y004009D02*
X014331Y004009D01*
X014350Y003851D02*
X014455Y003851D01*
X014485Y003692D02*
X014232Y003692D01*
X014331Y003534D02*
X014022Y003534D01*
X014126Y003375D02*
X012785Y003375D01*
X012986Y003217D02*
X014104Y003217D01*
X014189Y003058D02*
X013090Y003058D01*
X013073Y002900D02*
X015316Y002900D01*
X015312Y002915D02*
X015323Y002875D01*
X015343Y002838D01*
X015373Y002809D01*
X015409Y002788D01*
X015450Y002777D01*
X015728Y002777D01*
X015728Y003114D01*
X015764Y003114D01*
X015764Y002777D01*
X016043Y002777D01*
X016083Y002788D01*
X016119Y002809D01*
X016149Y002838D01*
X016170Y002875D01*
X016180Y002915D01*
X016180Y003114D01*
X015764Y003114D01*
X015764Y003151D01*
X015728Y003151D01*
X015728Y003488D01*
X015450Y003488D01*
X015409Y003477D01*
X015373Y003457D01*
X015343Y003427D01*
X015323Y003391D01*
X015312Y003350D01*
X015312Y003151D01*
X015728Y003151D01*
X015728Y003114D01*
X015312Y003114D01*
X015312Y002915D01*
X015312Y003058D02*
X014567Y003058D01*
X014378Y003058D02*
X014378Y003058D01*
X014378Y002984D02*
X014378Y003261D01*
X014378Y003261D01*
X014378Y002984D01*
X014378Y003217D02*
X014378Y003217D01*
X014378Y003375D02*
X014378Y003375D01*
X014378Y003534D02*
X014378Y003534D01*
X014425Y003534D02*
X014485Y003534D01*
X015031Y003851D02*
X015351Y003851D01*
X015351Y003692D02*
X015275Y003692D01*
X015275Y003534D02*
X017344Y003534D01*
X017326Y003551D02*
X017549Y003329D01*
X017730Y003148D01*
X017730Y003137D01*
X017741Y003097D01*
X017761Y003061D01*
X017854Y002968D01*
X018143Y003257D01*
X018143Y003257D01*
X018143Y003257D01*
X018432Y003546D01*
X018339Y003639D01*
X018303Y003660D01*
X018263Y003670D01*
X018252Y003670D01*
X018071Y003851D01*
X017849Y004074D01*
X017626Y004296D01*
X017403Y004519D01*
X017178Y004745D01*
X017079Y004745D01*
X016656Y004321D01*
X016656Y004222D01*
X016881Y003997D01*
X017104Y003774D01*
X017326Y003551D01*
X017186Y003692D02*
X016141Y003692D01*
X016204Y003851D02*
X017027Y003851D01*
X016869Y004009D02*
X016328Y004009D01*
X016328Y004168D02*
X016710Y004168D01*
X016660Y004326D02*
X016328Y004326D01*
X016328Y004485D02*
X016819Y004485D01*
X016977Y004643D02*
X016328Y004643D01*
X016328Y004802D02*
X018373Y004802D01*
X018263Y004960D02*
X017310Y004960D01*
X017469Y005119D02*
X017751Y005119D01*
X017939Y005436D02*
X020222Y005436D01*
X020064Y005594D02*
X017944Y005594D01*
X018103Y005753D02*
X018960Y005753D01*
X018885Y005911D02*
X018261Y005911D01*
X017375Y006070D02*
X017144Y006070D01*
X017216Y005911D02*
X016542Y005911D01*
X016525Y005753D02*
X017058Y005753D01*
X016899Y005594D02*
X016525Y005594D01*
X016525Y005436D02*
X016741Y005436D01*
X016656Y005277D02*
X016525Y005277D01*
X016390Y005119D02*
X016788Y005119D01*
X016947Y004960D02*
X016328Y004960D01*
X015764Y004485D02*
X015728Y004485D01*
X014540Y004485D02*
X014045Y004485D01*
X014266Y004960D02*
X014293Y004960D01*
X013344Y005277D02*
X013246Y005277D01*
X015313Y006545D02*
X015313Y006545D01*
X016124Y006704D02*
X016326Y006704D01*
X018451Y005277D02*
X018793Y005277D01*
X018786Y005119D02*
X018609Y005119D01*
X018808Y004960D02*
X019608Y004960D01*
X019574Y004802D02*
X018808Y004802D01*
X019676Y004643D02*
X017279Y004643D01*
X017438Y004485D02*
X019869Y004485D01*
X019993Y004326D02*
X017596Y004326D01*
X017755Y004168D02*
X020197Y004168D01*
X020244Y004214D02*
X020533Y003925D01*
X020533Y003925D01*
X020822Y003636D01*
X020812Y003626D01*
X021178Y003626D01*
X021166Y003638D01*
X021138Y003680D01*
X021119Y003727D01*
X021109Y003777D01*
X021109Y003802D01*
X021366Y003802D01*
X021366Y003802D01*
X021109Y003802D01*
X021109Y003827D01*
X021119Y003877D01*
X021138Y003924D01*
X021166Y003966D01*
X021202Y004002D01*
X021244Y004030D01*
X021291Y004049D01*
X021341Y004059D01*
X021366Y004059D01*
X021366Y003802D01*
X021366Y003802D01*
X021366Y004059D01*
X021391Y004059D01*
X021441Y004049D01*
X021488Y004030D01*
X021530Y004002D01*
X021566Y003966D01*
X021594Y003924D01*
X021613Y003877D01*
X021623Y003827D01*
X021623Y003802D01*
X021366Y003802D01*
X021366Y003802D01*
X021623Y003802D01*
X021623Y003777D01*
X021613Y003727D01*
X021594Y003680D01*
X021566Y003638D01*
X021530Y003602D01*
X021530Y003602D01*
X021584Y003548D01*
X021584Y003367D01*
X021456Y003240D01*
X021407Y003191D01*
X020514Y003191D01*
X020417Y003287D01*
X020239Y003109D01*
X020016Y002886D01*
X019793Y002663D01*
X019713Y002583D01*
X024967Y002583D01*
X024967Y002935D01*
X024842Y002935D01*
X024734Y002826D01*
X024734Y002728D01*
X024606Y002600D01*
X024426Y002600D01*
X024298Y002728D01*
X024298Y003006D01*
X024534Y003243D01*
X024534Y003812D01*
X024604Y003882D01*
X024967Y003882D01*
X024967Y003978D01*
X024604Y003978D01*
X024534Y004048D01*
X024534Y004214D01*
X023464Y004214D01*
X023425Y004175D01*
X023244Y004175D01*
X023117Y004302D01*
X023117Y004483D01*
X023242Y004608D01*
X023071Y004608D01*
X023031Y004568D01*
X022851Y004568D01*
X022723Y004696D01*
X022723Y004876D01*
X022851Y005004D01*
X023031Y005004D01*
X023071Y004965D01*
X023439Y004965D01*
X023314Y005090D01*
X023314Y005270D01*
X023441Y005398D01*
X023622Y005398D01*
X023661Y005358D01*
X024534Y005358D01*
X024534Y005525D01*
X024604Y005595D01*
X024967Y005595D01*
X024967Y005651D01*
X024633Y005651D01*
X024592Y005662D01*
X024556Y005683D01*
X024527Y005712D01*
X024506Y005749D01*
X024495Y005789D01*
X024495Y006084D01*
X024967Y006084D01*
X024967Y006244D01*
X024495Y006244D01*
X024495Y006539D01*
X024506Y006580D01*
X024527Y006616D01*
X024556Y006646D01*
X024592Y006666D01*
X024633Y006677D01*
X024967Y006677D01*
X024967Y006990D01*
X019713Y006990D01*
X019791Y006912D01*
X020013Y006689D01*
X020197Y006506D01*
X020207Y006506D01*
X020248Y006495D01*
X020284Y006474D01*
X020377Y006382D01*
X020088Y006093D01*
X020088Y006093D01*
X020377Y006382D01*
X020469Y006289D01*
X020490Y006253D01*
X020492Y006244D01*
X020646Y006244D01*
X020685Y006284D01*
X020866Y006284D01*
X020993Y006156D01*
X020993Y005998D01*
X021138Y005998D01*
X021178Y006038D01*
X021358Y006038D01*
X021486Y005910D01*
X021486Y005742D01*
X021866Y005742D01*
X021933Y005809D01*
X021931Y005809D01*
X021882Y005819D01*
X021835Y005838D01*
X021793Y005866D01*
X021757Y005902D01*
X021729Y005944D01*
X021709Y005991D01*
X021700Y006040D01*
X021700Y006066D01*
X021957Y006066D01*
X021957Y006066D01*
X021957Y006323D01*
X021982Y006323D01*
X022032Y006313D01*
X022079Y006294D01*
X022121Y006266D01*
X022156Y006230D01*
X022185Y006188D01*
X022204Y006141D01*
X022214Y006091D01*
X022214Y006090D01*
X022359Y006234D01*
X022539Y006234D01*
X022667Y006107D01*
X022667Y005926D01*
X022174Y005434D01*
X022174Y004434D01*
X022617Y003991D01*
X022617Y003810D01*
X022490Y003683D01*
X022309Y003683D01*
X021739Y004253D01*
X021739Y005307D01*
X021391Y005307D01*
X021352Y005268D01*
X021352Y005251D01*
X020929Y004828D01*
X020830Y004828D01*
X020649Y005009D01*
X020620Y004981D01*
X020857Y004745D01*
X020929Y004745D01*
X021352Y004321D01*
X021352Y004222D01*
X021130Y004000D01*
X020946Y003816D01*
X020946Y003805D01*
X020935Y003765D01*
X020915Y003729D01*
X020822Y003636D01*
X020533Y003925D01*
X020533Y003925D01*
X020244Y004214D01*
X020291Y004168D02*
X020291Y004168D01*
X020325Y004326D02*
X020180Y004326D01*
X020094Y004009D02*
X017913Y004009D01*
X018072Y003851D02*
X019936Y003851D01*
X019939Y003854D02*
X019939Y003854D01*
X019777Y003692D02*
X018230Y003692D01*
X018419Y003534D02*
X018419Y003534D01*
X018445Y003534D02*
X019619Y003534D01*
X019460Y003375D02*
X018556Y003375D01*
X018706Y003217D02*
X019302Y003217D01*
X019143Y003058D02*
X018864Y003058D01*
X018962Y002900D02*
X019046Y002900D01*
X019166Y002741D02*
X018842Y002741D01*
X018137Y002741D02*
X012785Y002741D01*
X013274Y003534D02*
X013316Y003534D01*
X015231Y003217D02*
X015312Y003217D01*
X015318Y003375D02*
X015275Y003375D01*
X015728Y003375D02*
X015764Y003375D01*
X015764Y003488D02*
X015764Y003151D01*
X016180Y003151D01*
X016180Y003350D01*
X016170Y003391D01*
X016149Y003427D01*
X016119Y003457D01*
X016083Y003477D01*
X016043Y003488D01*
X015764Y003488D01*
X015764Y003217D02*
X015728Y003217D01*
X015728Y003058D02*
X015764Y003058D01*
X015764Y002900D02*
X015728Y002900D01*
X016176Y002900D02*
X016313Y002900D01*
X016315Y002893D02*
X016344Y002851D01*
X016379Y002815D01*
X016421Y002787D01*
X016468Y002767D01*
X016518Y002757D01*
X016543Y002757D01*
X016543Y003015D01*
X016543Y003272D01*
X016518Y003272D01*
X016468Y003262D01*
X016421Y003243D01*
X016379Y003214D01*
X016344Y003179D01*
X016315Y003136D01*
X016296Y003090D01*
X016286Y003040D01*
X016286Y003015D01*
X016543Y003015D01*
X016543Y003015D01*
X016543Y003015D01*
X016543Y003272D01*
X016569Y003272D01*
X016618Y003262D01*
X016665Y003243D01*
X016707Y003214D01*
X016743Y003179D01*
X016771Y003136D01*
X016791Y003090D01*
X016800Y003040D01*
X016800Y003015D01*
X016543Y003015D01*
X016286Y003015D01*
X016286Y002989D01*
X016296Y002940D01*
X016315Y002893D01*
X016290Y003058D02*
X016180Y003058D01*
X016180Y003217D02*
X016383Y003217D01*
X016543Y003217D02*
X016543Y003217D01*
X016543Y003058D02*
X016543Y003058D01*
X016543Y003015D02*
X016543Y003015D01*
X016543Y003015D01*
X016800Y003015D01*
X016800Y002989D01*
X016791Y002940D01*
X016771Y002893D01*
X016743Y002851D01*
X016707Y002815D01*
X016665Y002787D01*
X016618Y002767D01*
X016569Y002757D01*
X016543Y002757D01*
X016543Y003015D01*
X016543Y002900D02*
X016543Y002900D01*
X016774Y002900D02*
X017923Y002900D01*
X017944Y003058D02*
X017944Y003058D01*
X017764Y003058D02*
X016797Y003058D01*
X016704Y003217D02*
X017661Y003217D01*
X017503Y003375D02*
X016174Y003375D01*
X018102Y003217D02*
X018102Y003217D01*
X018261Y003375D02*
X018261Y003375D01*
X019871Y002741D02*
X024298Y002741D01*
X024298Y002900D02*
X020030Y002900D01*
X020188Y003058D02*
X024350Y003058D01*
X024508Y003217D02*
X023211Y003217D01*
X023203Y003209D02*
X023239Y003244D01*
X023267Y003287D01*
X023287Y003333D01*
X023297Y003383D01*
X023297Y003408D01*
X023039Y003408D01*
X023039Y003408D01*
X023039Y003151D01*
X023014Y003151D01*
X022964Y003161D01*
X022918Y003180D01*
X022875Y003209D01*
X022840Y003244D01*
X022811Y003287D01*
X022792Y003333D01*
X022782Y003383D01*
X022782Y003408D01*
X023039Y003408D01*
X023039Y003408D01*
X022782Y003408D01*
X022782Y003434D01*
X022792Y003483D01*
X022811Y003530D01*
X022840Y003572D01*
X022875Y003608D01*
X022918Y003636D01*
X022964Y003656D01*
X023014Y003665D01*
X023039Y003665D01*
X023039Y003408D01*
X023039Y003151D01*
X023065Y003151D01*
X023114Y003161D01*
X023161Y003180D01*
X023203Y003209D01*
X023039Y003217D02*
X023039Y003217D01*
X023039Y003375D02*
X023039Y003375D01*
X023039Y003408D02*
X023039Y003408D01*
X023039Y003408D01*
X023297Y003408D01*
X023297Y003434D01*
X023287Y003483D01*
X023267Y003530D01*
X023239Y003572D01*
X023203Y003608D01*
X023161Y003636D01*
X023114Y003656D01*
X023065Y003665D01*
X023039Y003665D01*
X023039Y003408D01*
X023039Y003534D02*
X023039Y003534D01*
X022814Y003534D02*
X021584Y003534D01*
X021584Y003375D02*
X022784Y003375D01*
X022867Y003217D02*
X021433Y003217D01*
X020488Y003217D02*
X020347Y003217D01*
X020766Y003692D02*
X020766Y003692D01*
X020878Y003692D02*
X021133Y003692D01*
X021114Y003851D02*
X020981Y003851D01*
X021139Y004009D02*
X021213Y004009D01*
X021366Y004009D02*
X021366Y004009D01*
X021519Y004009D02*
X021983Y004009D01*
X022141Y003851D02*
X021619Y003851D01*
X021599Y003692D02*
X022300Y003692D01*
X022499Y003692D02*
X023766Y003692D01*
X023766Y003704D02*
X023766Y003678D01*
X023776Y003629D01*
X023796Y003582D01*
X023824Y003540D01*
X023860Y003504D01*
X023902Y003476D01*
X023949Y003456D01*
X023998Y003446D01*
X024024Y003446D01*
X024049Y003446D01*
X024099Y003456D01*
X024145Y003476D01*
X024188Y003504D01*
X024223Y003540D01*
X024252Y003582D01*
X024271Y003629D01*
X024281Y003678D01*
X024281Y003704D01*
X024281Y003729D01*
X024271Y003779D01*
X024252Y003825D01*
X024223Y003868D01*
X024188Y003903D01*
X024145Y003931D01*
X024099Y003951D01*
X024049Y003961D01*
X024024Y003961D01*
X024024Y003704D01*
X024281Y003704D01*
X024024Y003704D01*
X024024Y003704D01*
X024024Y003704D01*
X024024Y003961D01*
X023998Y003961D01*
X023949Y003951D01*
X023902Y003931D01*
X023860Y003903D01*
X023824Y003868D01*
X023796Y003825D01*
X023776Y003779D01*
X023766Y003729D01*
X023766Y003704D01*
X024024Y003704D01*
X024024Y003446D01*
X024024Y003704D01*
X024024Y003704D01*
X024024Y003704D01*
X023766Y003704D01*
X023813Y003851D02*
X022617Y003851D01*
X022599Y004009D02*
X024573Y004009D01*
X024573Y003851D02*
X024235Y003851D01*
X024281Y003692D02*
X024534Y003692D01*
X024024Y003692D02*
X024024Y003692D01*
X024024Y003851D02*
X024024Y003851D01*
X024534Y004168D02*
X022440Y004168D01*
X022282Y004326D02*
X023117Y004326D01*
X023119Y004485D02*
X022174Y004485D01*
X021739Y004485D02*
X021189Y004485D01*
X021347Y004326D02*
X021739Y004326D01*
X021824Y004168D02*
X021298Y004168D01*
X021366Y003851D02*
X021366Y003851D01*
X020608Y003851D02*
X020608Y003851D01*
X020449Y004009D02*
X020449Y004009D01*
X021030Y004643D02*
X021739Y004643D01*
X021739Y004802D02*
X020800Y004802D01*
X020698Y004960D02*
X020641Y004960D01*
X021061Y004960D02*
X021739Y004960D01*
X021739Y005119D02*
X021220Y005119D01*
X021362Y005277D02*
X021739Y005277D01*
X022174Y005277D02*
X023321Y005277D01*
X023314Y005119D02*
X022174Y005119D01*
X022174Y004960D02*
X022807Y004960D01*
X022723Y004802D02*
X022174Y004802D01*
X022174Y004643D02*
X022776Y004643D01*
X022176Y005436D02*
X024534Y005436D01*
X024604Y005594D02*
X022334Y005594D01*
X022493Y005753D02*
X024505Y005753D01*
X024495Y005911D02*
X022651Y005911D01*
X022667Y006070D02*
X024495Y006070D01*
X024495Y006387D02*
X020372Y006387D01*
X020223Y006228D02*
X020223Y006228D01*
X020088Y006093D02*
X019799Y005804D01*
X020088Y006093D01*
X020088Y006093D01*
X020065Y006070D02*
X020065Y006070D01*
X019906Y005911D02*
X019906Y005911D01*
X019850Y005753D02*
X019554Y005753D01*
X020158Y006545D02*
X024496Y006545D01*
X024967Y006704D02*
X019999Y006704D01*
X019841Y006862D02*
X024967Y006862D01*
X024967Y006228D02*
X022545Y006228D01*
X022352Y006228D02*
X022158Y006228D01*
X021957Y006228D02*
X021957Y006228D01*
X021957Y006323D02*
X021931Y006323D01*
X021882Y006313D01*
X021835Y006294D01*
X021793Y006266D01*
X021757Y006230D01*
X021729Y006188D01*
X021709Y006141D01*
X021700Y006091D01*
X021700Y006066D01*
X021957Y006066D01*
X021957Y006323D01*
X021756Y006228D02*
X020921Y006228D01*
X020993Y006070D02*
X021700Y006070D01*
X021751Y005911D02*
X021484Y005911D01*
X021486Y005753D02*
X021877Y005753D01*
X021957Y006066D02*
X021957Y006066D01*
X021957Y006070D02*
X021957Y006070D01*
X019748Y008130D02*
X024407Y008130D01*
X024298Y008289D02*
X019907Y008289D01*
X020065Y008447D02*
X024298Y008447D01*
X024734Y008289D02*
X024967Y008289D01*
X024967Y008130D02*
X024624Y008130D01*
X023039Y008923D02*
X023039Y008923D01*
X023039Y009081D02*
X023039Y009081D01*
X020731Y009240D02*
X020731Y009240D01*
X020572Y009398D02*
X020572Y009398D01*
X020414Y009557D02*
X020414Y009557D01*
X019640Y010191D02*
X018693Y010191D01*
X018808Y010349D02*
X019574Y010349D01*
X018880Y010508D02*
X018787Y010508D01*
X018786Y010666D02*
X018573Y010666D01*
X018415Y010825D02*
X018829Y010825D01*
X018227Y010508D02*
X017346Y010508D01*
X017504Y010666D02*
X017715Y010666D01*
X017764Y010618D02*
X017764Y010618D01*
X018138Y011300D02*
X018924Y011300D01*
X018885Y011459D02*
X018858Y011459D01*
X017411Y011617D02*
X017180Y011617D01*
X017324Y011530D02*
X017324Y011530D01*
X017252Y011459D02*
X017021Y011459D01*
X015142Y012410D02*
X012785Y012410D01*
X012785Y012251D02*
X015057Y012251D01*
X012862Y012093D02*
X012785Y012093D01*
X013282Y010825D02*
X013309Y010825D01*
X013317Y010666D02*
X013273Y010666D01*
X014230Y010508D02*
X014329Y010508D01*
X021097Y010508D02*
X021739Y010508D01*
X021739Y010666D02*
X021255Y010666D01*
X023039Y010508D02*
X023408Y010508D01*
X023265Y003534D02*
X023830Y003534D01*
X024024Y003534D02*
X024024Y003534D01*
X024217Y003534D02*
X024534Y003534D01*
X024534Y003375D02*
X023295Y003375D01*
X024734Y002741D02*
X024967Y002741D01*
X024967Y002900D02*
X024807Y002900D01*
D22*
X014378Y003261D03*
X012852Y003015D03*
X012852Y008526D03*
X014378Y008772D03*
M02*
