%
M48
M72
T01C0.0118
%
T01
X12852Y3015
X14378Y3261
X14132Y3900
X14673Y3900
X16543Y3015
X20087Y4540
X19791Y4835
X19004Y5180
X18591Y4885
X19102Y5918
X20776Y6066
X21268Y5820
X21957Y6066
X22449Y6017
X23531Y5180
X23827Y4786
X23335Y4393
X22941Y4786
X22400Y3900
X21366Y3802
X21366Y3458
X23039Y3408
X24024Y3704
X24516Y2818
X16543Y6755
X15313Y6706
X14673Y5672
X14132Y5672
X14132Y4786
X14427Y4786
X13049Y6459
X12852Y8526
X14378Y8772
X14132Y9412
X14673Y9412
X14427Y10298
X14132Y10298
X14132Y11184
X14673Y11184
X13049Y11971
X15313Y12217
X16543Y12267
X19102Y11430
X19004Y10692
X18591Y10397
X19791Y10347
X20087Y10052
X21366Y9314
X21366Y8969
X22400Y9412
X23335Y9904
X22941Y10298
X23531Y10692
X23827Y10298
X24024Y9215
X23039Y8920
X24516Y8330
X21268Y11332
X20776Y11578
X21957Y11578
X22449Y11528
X16543Y8526
M30
